<svg width="558" height="386" viewBox="0 0 558 386" fill="none" xmlns="http://www.w3.org/2000/svg">
<g clip-path="url(#clip0)">
<path opacity="0.18" d="M241.652 20.2738C237.291 22.2936 233.007 24.4816 228.8 26.8839C179.61 54.8848 145.184 107.444 91.3271 124.902C76.746 129.631 61.0938 130.931 49.3126 141.275C40.8123 149.033 33.4148 157.918 27.3262 167.684C14.4524 187.921 5.90888 210.604 2.23378 234.305C-5.12564 280.208 5.17142 331.895 41.6931 363.339C69.1418 386.994 109.993 388.188 144.373 381.792C164.095 378.135 182.991 371.005 202.514 366.307C236.647 358.128 272.153 357.496 306.556 364.456C329.246 369.046 351.171 376.957 373.877 381.807C390.187 385.311 407.17 387.255 423.817 385.097C439.79 383.031 452.107 375.412 466.657 369.26C494.336 357.525 522.35 342.56 539.992 317.329C553.562 297.556 559.831 273.679 557.725 249.79C555.429 225.937 545.668 203.417 529.832 185.434C522.809 177.355 513.629 170.224 510.202 159.942C506.775 149.66 506.239 137.664 505.168 127.121C502.843 104.001 500.058 80.2234 488.797 59.9036C476.281 37.3192 454.111 21.146 429.922 12.0418C405.732 2.9377 379.584 0.336524 353.742 0.0305028C315.476 -0.352024 276.2 4.2383 241.652 20.2738Z" fill="#8CC5F9"/>
<path d="M496.906 221.896L470.896 240.257L355.409 321.399C346.54 327.79 337.303 333.656 327.747 338.965C319.959 343.172 315.506 351.205 306.081 353.347C301.401 354.161 296.609 354.078 291.959 353.103C284.357 351.865 276.877 349.966 269.606 347.426C268.718 347.12 267.448 346.936 267.051 347.793C266.653 348.65 268.795 348.558 268.045 347.977C200.341 338.796 135.652 314.314 68.5604 301.462C67.7809 301.317 67.0694 300.923 66.5332 300.339C65.997 299.756 65.665 299.013 65.5873 298.224C65.5096 297.435 65.6904 296.642 66.1025 295.965C66.5145 295.288 67.1355 294.763 67.8719 294.469C73.2729 292.266 79.1635 291.409 85.1153 290.246C95.8255 288.272 106.383 286.344 117.062 284.6C138.586 280.871 160.317 278.459 182.134 277.378C218.365 275.848 254.933 279.719 290.766 274.103C324.809 268.778 356.848 255.176 388.519 241.558C396.169 238.283 403.957 234.887 409.94 229.133C414.637 224.62 418.401 218.667 424.383 215.699C430.595 212.639 438.153 213.174 444.824 213.48C462.419 214.261 479.8 217.841 496.906 221.896Z" fill="url(#paint0_linear)"/>
<path d="M71.4981 278.678L222.726 212.884C226.001 211.24 229.698 210.626 233.329 211.124L420.374 227.022C423.954 227.527 423.312 242.92 420.374 245.383L309.906 339.424C306.579 342.361 302.596 344.458 298.292 345.539C293.987 346.62 289.486 346.653 285.166 345.636L72.8292 293.995C70.121 293.337 68.9582 279.933 71.4981 278.678Z" fill="#8CC5F9"/>
<path d="M71.4981 278.678L222.726 212.884C226.001 211.24 229.698 210.626 233.329 211.124L420.374 227.022C423.954 227.527 423.312 242.92 420.374 245.383L309.906 339.424C306.579 342.361 302.596 344.458 298.292 345.539C293.987 346.62 289.486 346.653 285.166 345.636L72.8292 293.995C70.121 293.337 68.9582 279.933 71.4981 278.678Z" fill="url(#paint1_linear)"/>
<path d="M420.42 234.474L309.952 328.514C306.628 331.456 302.646 333.557 298.341 334.641C294.035 335.724 289.533 335.759 285.212 334.741L72.8292 283.085C70.121 282.427 69.7691 278.143 72.2937 276.873L130.496 244.021L145.796 235.422L192.324 209.273C195.599 207.628 199.296 207.014 202.927 207.513L418.538 226.272C422.118 226.701 423.312 232.01 420.42 234.474Z" fill="#8CC5F9"/>
<path d="M202.912 212.639L399.994 241.787L339.329 291.057L137.075 250.127L202.912 212.639Z" fill="url(#paint2_linear)"/>
<path d="M402.381 247.112C401.8 248.872 399.887 249.775 398.158 250.463C385.554 255.192 372.703 259.237 359.663 262.582C347.285 265.994 334.372 269.437 321.734 267.172C320.147 266.759 318.501 266.625 316.868 266.774C314.175 267.264 312.186 269.452 310.09 271.181C299.64 279.78 284.37 277.822 271.059 275.404C271.635 271.016 271.921 266.594 271.916 262.169C236.313 262.808 200.72 260.382 165.533 254.916C157.883 253.738 137.213 252.804 131.995 246.454C131.35 245.754 130.833 244.946 130.465 244.067L145.765 235.468C146.459 235.498 147.146 235.606 147.816 235.789C188.527 247.079 230.84 251.475 273.002 248.795C274.089 243.302 268.412 236.432 272.727 232.79C274.147 231.78 275.867 231.279 277.608 231.367C284.067 231.116 290.489 232.462 296.305 235.285C299.747 236.968 302.991 239.171 306.709 240.12C310.347 240.842 314.079 240.961 317.756 240.472C341.229 238.715 364.782 238.265 388.305 239.125C392.176 239.263 396.23 239.492 399.52 241.527C401.448 242.69 403.116 244.955 402.381 247.112Z" fill="url(#paint3_linear)"/>
<path d="M182.287 262.337L263.501 278.755L221.502 313.014L137.075 294.071L182.287 262.337Z" fill="url(#paint4_linear)"/>
<path d="M141.68 300.008C142.511 301.676 143.686 303.149 145.129 304.328C146.572 305.507 148.249 306.366 150.05 306.848C156.017 308.286 190.794 317.191 190.794 317.191C190.794 317.191 196.455 317.864 199.592 314.131L141.68 300.008Z" fill="url(#paint5_linear)"/>
<path d="M196.731 207.421L419.166 239.079C420.796 239.306 422.451 238.902 423.794 237.95C425.136 236.997 426.064 235.567 426.387 233.953L458.12 73.7053C458.46 71.9951 458.435 70.2324 458.048 68.5322C457.661 66.832 456.92 65.2325 455.874 63.8379C454.827 62.4433 453.498 61.285 451.974 60.4384C450.45 59.5918 448.764 59.0759 447.027 58.9245L227.362 39.6604C224.129 39.3772 220.913 40.3719 218.405 42.4312C215.897 44.4906 214.295 47.4508 213.943 50.6772L196.731 207.421Z" fill="#8CC5F9"/>
<path d="M196.731 207.421L418.584 238.987C420.377 239.241 422.198 238.799 423.675 237.752C425.152 236.705 426.171 235.132 426.525 233.357L458.12 73.7053C458.46 71.9951 458.435 70.2324 458.048 68.5322C457.661 66.832 456.92 65.2325 455.874 63.8379C454.827 62.4433 453.498 61.285 451.974 60.4384C450.45 59.5918 448.764 59.0759 447.027 58.9245L227.362 39.6604C224.129 39.3772 220.913 40.3719 218.405 42.4312C215.897 44.4906 214.295 47.4508 213.943 50.6772L196.731 207.421Z" fill="url(#paint6_linear)"/>
<path d="M415.142 229.868L446.737 68.1816L222.726 47.4945L204.916 200.582L415.142 229.868Z" fill="white"/>
<path d="M396.72 97.5749L239.602 81.218L243.167 61.3267L400.331 77.6835C401.659 77.7696 402.954 78.1338 404.133 78.7525C405.311 79.3712 406.346 80.2306 407.172 81.275C407.997 82.3195 408.593 83.5256 408.922 84.8152C409.252 86.1049 409.306 87.4494 409.083 88.7615C408.48 91.501 406.881 93.9192 404.597 95.5475C402.313 97.1758 399.506 97.8982 396.72 97.5749Z" fill="#8CC5F9"/>
<path opacity="0.56" d="M239.602 81.2181L366.517 94.4536L370.082 74.501L243.167 61.2502L239.602 81.2181Z" fill="white"/>
<path d="M389.085 89.8098C391.768 88.7602 393.163 85.9124 392.199 83.4491C391.236 80.9858 388.28 79.8397 385.596 80.8893C382.913 81.9388 381.518 84.7866 382.481 87.2499C383.445 89.7133 386.401 90.8594 389.085 89.8098Z" stroke="white" stroke-width="1.04" stroke-miterlimit="10"/>
<path d="M390.6 93.6272C390.493 93.3671 389.162 89.7407 389.162 89.7407" stroke="white" stroke-width="1.04" stroke-miterlimit="10"/>
<path opacity="0.18" d="M395.205 126.371L234.859 109.204L235.7 106.572L396.032 123.74L395.205 126.371Z" fill="#8CC5F9"/>
<path opacity="0.18" d="M291.867 105.317L237.72 98.9061L238.822 94.1934L292.984 100.1L291.867 105.317Z" fill="#8CC5F9"/>
<path opacity="0.18" d="M393.216 136.975L232.87 119.807L233.696 117.176L394.043 134.343L393.216 136.975Z" fill="#8CC5F9"/>
<g opacity="0.66">
<path opacity="0.18" d="M283.253 147.671L229.106 141.275L230.208 136.547L284.37 142.453L283.253 147.671Z" fill="#8CC5F9"/>
<path opacity="0.18" d="M386.163 169.674L225.816 152.506L226.658 149.859L387.004 167.042L386.163 169.674Z" fill="#8CC5F9"/>
<path opacity="0.18" d="M382.506 181.945L222.16 164.777L223.001 162.145L383.332 179.313L382.506 181.945Z" fill="#8CC5F9"/>
</g>
<path opacity="0.18" d="M379.4 208.462L219.222 187.545L220.048 184.929L380.226 205.845L379.4 208.462Z" fill="#8CC5F9"/>
<path d="M290.521 193.008C290.521 193.008 126.655 247.265 104.256 198.562C81.8563 149.859 204.518 136.516 204.518 136.516C204.518 136.516 61.1857 150.792 93.3468 210.956C125.508 271.12 300.298 211.629 300.298 211.629L290.521 193.008Z" fill="white"/>
<path d="M290.904 190.758C290.972 192.988 291.581 195.167 292.678 197.108L296.718 205.738C297.579 207.885 298.789 209.876 300.298 211.629C301.481 212.824 302.928 213.724 304.523 214.255C306.118 214.787 307.815 214.936 309.478 214.689C310.263 214.638 311.021 214.386 311.68 213.957C312.339 213.528 312.877 212.937 313.242 212.241C313.93 210.451 312.768 208.538 311.834 206.87C309.325 202.387 308.254 197.277 307.061 192.289C306.143 188.402 304.276 182.924 299.533 182.373C295.341 181.884 291.148 186.673 290.904 190.758Z" fill="#8CC5F9"/>
<path d="M332.061 170.653C332.061 170.653 297.391 138.934 263.501 170.653C263.501 170.653 289.695 167.271 297.773 181.7L332.061 170.653Z" fill="#8CC5F9"/>
<path d="M346.229 199.648C346.229 199.648 344.577 246.623 298.202 248.612C298.202 248.612 318.964 232.285 314.328 216.403L346.229 199.648Z" fill="#8CC5F9"/>
<path d="M297.773 181.731C297.773 181.731 407.094 118.996 468.555 129.034C468.555 129.034 454.662 174.203 314.282 216.403L297.773 181.731Z" fill="white"/>
<path d="M468.631 129.003C468.631 129.003 454.739 174.172 314.359 216.372L309.356 205.861L297.773 181.731C297.773 181.731 394.808 125.974 457.431 127.963C461.183 128.065 464.925 128.412 468.631 129.003Z" fill="url(#paint7_linear)"/>
<path d="M468.631 129.003C458.916 141.749 425.377 165.236 356.435 190.284C352.538 191.712 348.524 193.14 344.393 194.568C333.53 198.322 321.851 202.086 309.356 205.86L297.789 181.731C297.789 181.731 309.738 174.555 328.007 165.435C337.646 160.615 349.045 155.26 361.377 150.134C395.787 135.828 437.495 123.204 468.631 129.003Z" fill="white"/>
<path d="M384.388 152.429C378.559 154.862 372.01 154.464 365.706 154.877C363.833 154.952 361.974 155.245 360.168 155.75C356.603 157.129 353.351 159.21 350.605 161.87C350.232 162.126 349.953 162.497 349.809 162.926C349.768 163.371 349.876 163.818 350.115 164.196C351.511 167.04 353.117 169.776 354.92 172.382C357.062 175.442 359.586 178.701 359.51 182.465C359.292 185.347 358.174 188.088 356.312 190.299L355.853 190.942C353.646 193.914 351.249 196.741 348.677 199.403C346.78 201.362 348.004 207.345 343.414 205.906C339.421 204.667 341.364 199.924 342.726 197.43L344.256 194.584L346.826 189.825C348.784 186.229 350.773 181.96 349.121 178.211C347.958 175.595 345.281 174.019 342.771 172.611C338.036 169.804 333.071 167.404 327.93 165.435C337.569 160.615 348.968 155.26 361.3 150.134C369.351 150.81 377.438 150.927 385.505 150.486C386.178 151.129 385.23 152.077 384.388 152.429Z" fill="url(#paint8_linear)"/>
<path d="M370.771 179.451C377.717 179.451 383.348 173.82 383.348 166.873C383.348 159.927 377.717 154.296 370.771 154.296C363.825 154.296 358.194 159.927 358.194 166.873C358.194 173.82 363.825 179.451 370.771 179.451Z" fill="#8CC5F9"/>
<path d="M370.771 175.014C375.503 175.014 379.339 171.177 379.339 166.445C379.339 161.713 375.503 157.876 370.771 157.876C366.039 157.876 362.203 161.713 362.203 166.445C362.203 171.177 366.039 175.014 370.771 175.014Z" fill="url(#paint9_linear)"/>
<path d="M351.967 139.485C351.967 139.561 350.161 139.255 350.207 139.347C350.62 139.833 351.145 140.211 351.737 140.449C353.902 141.323 356.12 142.058 358.378 142.652C360.627 142.881 361.713 140.755 362.417 138.964C362.983 137.526 363.564 136.088 364.161 134.665C364.619 133.75 364.909 132.76 365.018 131.742C365.041 131.509 365.009 131.273 364.926 131.054C364.78 130.772 364.535 130.554 364.238 130.442C363.786 130.258 363.281 130.258 362.83 130.442C362.004 130.794 361.621 131.727 361.208 132.523C360.244 134.343 358.73 135.828 357.903 137.71C357.285 137.748 356.676 137.545 356.205 137.143L353.527 135.399C353.399 135.297 353.246 135.228 353.084 135.2C352.951 135.193 352.82 135.219 352.7 135.275C352.58 135.331 352.475 135.416 352.395 135.522C351.914 136.103 351.625 136.819 351.569 137.572C351.492 137.956 351.492 138.351 351.569 138.735C351.665 139.003 351.799 139.255 351.967 139.485Z" fill="#F5FAFE"/>
<path d="M354.032 135.323L354.981 135.904C355.119 135.904 355.256 136.057 355.302 136.21C355.333 136.32 355.333 136.437 355.302 136.547L354.675 139.331C354.484 140.578 354.036 141.771 353.359 142.835C352.992 143.34 350.299 141.474 349.84 141.229C348.695 140.469 347.695 139.51 346.887 138.398C346.513 137.945 346.228 137.426 346.046 136.868C345.77 135.456 345.986 133.993 346.658 132.721C347.729 130.625 349.534 131.666 350.896 132.951C351.865 133.838 352.915 134.632 354.032 135.323Z" fill="#8CC5F9"/>
<path d="M336.758 204.82C336.805 205.021 336.912 205.202 337.064 205.34C339.246 207.468 341.846 209.12 344.699 210.191C344.873 210.287 345.067 210.34 345.265 210.344C345.456 210.304 345.625 210.197 345.743 210.042C345.861 209.888 345.919 209.696 345.908 209.502C345.869 209.114 345.727 208.744 345.495 208.431C344.933 207.542 344.304 206.698 343.613 205.906C342.968 205.374 342.557 204.611 342.465 203.78C342.525 203.366 342.633 202.96 342.787 202.571C343.246 200.842 340.369 200.49 339.161 200.903C338.477 201.317 337.903 201.889 337.485 202.57C337.067 203.252 336.818 204.023 336.758 204.82Z" fill="#F5FAFE"/>
<path d="M329.72 156.224C329.72 156.224 324.503 163.507 329.873 169.995C333.591 174.493 339.176 177.554 344.317 180.124C345.219 180.583 346.29 180.95 347.163 181.501C348.861 182.572 347.82 183.475 346.918 184.898C344.653 188.54 342.369 192.156 340.063 195.747C338.731 197.565 337.817 199.654 337.386 201.867L343.215 203.642C346.356 198.288 349.938 193.205 353.925 188.448C355.654 186.398 357.888 183.858 357.567 181.012C357.164 178.377 356.005 175.916 354.231 173.927L343.322 161.258L329.72 156.224Z" fill="#473F47"/>
<path d="M355.057 121.414C355.241 121.949 355.761 122.378 355.838 122.944C355.914 123.51 355.333 124.183 354.95 124.811C354.568 125.438 354.308 126.647 353.788 127.488C353.695 127.674 353.544 127.824 353.359 127.917C353.192 127.977 353.016 128.008 352.839 128.009C352.144 127.989 351.454 127.876 350.789 127.672C350.671 127.597 350.53 127.564 350.391 127.58C350.275 127.649 350.187 127.758 350.146 127.886C349.368 129.496 348.995 131.271 349.06 133.058C349.06 133.639 349.06 134.374 348.585 134.665C348.413 134.777 348.209 134.831 348.004 134.818C346.658 134.818 345.633 133.609 344.944 132.415C344.381 131.343 343.944 130.208 343.644 129.034C343.534 128.693 343.493 128.335 343.521 127.978C343.592 127.563 343.737 127.164 343.95 126.8C344.628 125.474 345.177 124.085 345.587 122.653C345.943 120.777 346.583 118.966 347.484 117.283C347.834 116.748 348.342 116.336 348.937 116.104C349.618 115.956 350.326 115.993 350.988 116.212C352.37 116.433 353.613 117.178 354.461 118.293C354.721 118.69 354.843 120.725 355.057 121.414Z" fill="#F5FAFE"/>
<path d="M341.639 162.207C340.471 162.393 339.275 162.325 338.135 162.008C336.464 161.673 334.754 161.575 333.056 161.717C332.047 161.97 331.059 162.303 330.103 162.712C329.327 162.92 328.515 162.959 327.722 162.824C326.93 162.689 326.176 162.385 325.513 161.931C325.513 161.702 325.513 161.457 325.513 161.227C325.742 159.177 324.885 156.27 325.513 154.296C327.762 146.416 329.674 140.525 334.157 133.762C335.443 131.819 340.507 129.325 342.588 128.284C343.061 128.03 343.582 127.879 344.118 127.84C344.734 127.866 345.337 128.033 345.877 128.33C347.729 129.233 348.448 130.916 349.35 132.66C350.402 134.437 351.118 136.393 351.462 138.429C351.691 141.061 352.625 143.524 351.125 145.972C349.06 149.415 345.633 151.741 343.72 155.459C343.381 155.996 343.191 156.614 343.169 157.249C343.169 158.137 343.797 158.948 343.797 159.835C343.734 160.408 343.491 160.946 343.104 161.372C342.716 161.798 342.203 162.09 341.639 162.207Z" fill="#8CC5F9"/>
<path d="M353.436 149.797C354.17 150.134 354.966 150.425 355.593 150.67C359.189 151.815 362.917 152.494 366.686 152.689C371.426 153.288 376.217 153.375 380.976 152.949C382.92 152.8 384.804 152.209 386.484 151.22C386.974 150.899 387.479 150.318 387.234 149.782C387.092 149.543 386.877 149.356 386.622 149.247C384.784 148.277 382.712 147.842 380.639 147.992C380.639 147.273 380.456 146.355 379.752 146.293C379.048 146.232 378.635 147.196 378.222 147.824C377.304 149.354 375.162 149.522 373.448 149.507C369.488 149.565 365.534 149.159 361.667 148.298C359.729 147.835 357.85 147.153 356.067 146.263C354.92 145.681 352.609 143.279 351.477 144.564C350.345 145.85 349.289 146.707 350.819 148.068C351.599 148.774 352.481 149.357 353.436 149.797Z" fill="#F5FAFE"/>
<path d="M347.469 135.032C347.469 135.032 353.466 143.493 354.338 143.998C355.21 144.503 348.953 150.654 348.953 150.654C348.953 150.654 341.7 142.805 340.859 138.796C340.017 134.787 343.766 132.033 347.469 135.032Z" fill="#8CC5F9"/>
<path d="M354.415 117.466C354.157 117.818 353.83 118.114 353.454 118.335C353.078 118.556 352.66 118.698 352.227 118.752C351.473 118.872 350.711 118.938 349.947 118.95C349.947 118.95 349.81 118.95 349.764 118.95C349.736 118.982 349.715 119.018 349.702 119.057C349.689 119.097 349.684 119.139 349.687 119.18C349.655 119.768 349.503 120.342 349.24 120.869C348.976 121.395 348.608 121.862 348.157 122.24C348.039 122.315 347.943 122.421 347.882 122.546C347.82 122.725 347.82 122.919 347.882 123.097C347.989 123.71 347.989 124.336 347.882 124.948C347.794 125.57 347.504 126.146 347.055 126.586C346.944 126.663 346.863 126.776 346.826 126.907C346.825 127.021 346.857 127.132 346.918 127.228C347.128 127.868 347.085 128.564 346.795 129.172C346.22 128.73 345.554 128.421 344.845 128.268C344.136 128.115 343.402 128.12 342.695 128.284C342.265 128.321 341.859 128.492 341.532 128.774C339.482 130.931 337.799 133.486 335.641 135.567C334.723 136.455 333.698 137.235 332.842 138.199C331.55 139.775 330.517 141.547 329.781 143.447C329.22 144.937 328.475 146.351 327.563 147.655C327.104 148.304 326.522 148.855 325.85 149.278C325.178 149.701 324.429 149.986 323.646 150.119C322.905 150.18 322.159 150.086 321.456 149.844C320.752 149.602 320.107 149.216 319.561 148.711C318.606 147.835 317.924 146.702 317.598 145.448C317.272 144.194 317.316 142.872 317.725 141.642C317.924 141.261 317.979 140.821 317.878 140.403C317.759 140.171 317.592 139.968 317.388 139.806C316.45 138.829 315.927 137.526 315.927 136.172C315.927 134.817 316.45 133.515 317.388 132.538C318.413 131.574 320.877 130.64 321.014 129.049C321.152 127.458 319.729 125.882 320.311 124.046C320.521 123.487 320.826 122.97 321.213 122.516C321.951 121.432 322.951 120.553 324.12 119.96C325.303 119.562 326.544 119.36 327.792 119.364C331.801 119.088 335.993 117.833 338.64 114.773C339.236 113.98 339.891 113.234 340.599 112.539C341.429 111.897 342.374 111.419 343.383 111.132C345.811 110.203 348.489 110.165 350.942 111.025C351.794 111.38 352.555 111.924 353.167 112.616C353.779 113.308 354.227 114.129 354.476 115.018C354.642 115.407 354.722 115.826 354.711 116.249C354.701 116.671 354.6 117.086 354.415 117.466Z" fill="#878ABC"/>
<path d="M353.971 124.092C353.382 124.072 352.795 124.021 352.212 123.939C352.043 124.26 352.808 125.469 352.977 125.561C353.057 125.63 353.161 125.669 353.267 125.669C353.374 125.669 353.477 125.63 353.558 125.561C353.626 125.464 353.672 125.355 353.696 125.239L353.971 124.076" fill="white"/>
<path d="M352.594 121.49C352.848 121.49 353.053 121.285 353.053 121.031C353.053 120.778 352.848 120.572 352.594 120.572C352.341 120.572 352.135 120.778 352.135 121.031C352.135 121.285 352.341 121.49 352.594 121.49Z" fill="#231F20"/>
<path d="M363.524 126.818L362.863 126.692C362.448 126.613 362.047 126.885 361.968 127.3L361.127 131.719C361.048 132.134 361.32 132.535 361.735 132.614L362.397 132.74C362.812 132.819 363.212 132.547 363.291 132.132L364.133 127.712C364.212 127.297 363.939 126.897 363.524 126.818Z" fill="#8CC5F9"/>
<path d="M362.187 127.182C361.785 127.225 361.403 127.378 361.082 127.623C360.761 127.869 360.513 128.198 360.367 128.575C360.24 129.066 360.266 129.583 360.441 130.059C360.616 130.534 360.932 130.945 361.346 131.237C362.188 131.802 363.154 132.154 364.161 132.262C364.308 132.313 364.465 132.328 364.619 132.307C364.774 132.286 364.921 132.228 365.049 132.14C365.18 131.995 365.266 131.814 365.293 131.62C365.534 130.938 365.633 130.214 365.584 129.493C365.374 128.773 364.92 128.149 364.301 127.728C363.681 127.306 362.934 127.113 362.187 127.182Z" fill="#F5FAFE"/>
<path d="M359.403 123.893L359.25 125.637C359.199 125.868 359.241 126.11 359.367 126.31C359.493 126.511 359.693 126.653 359.923 126.708C362.855 126.914 365.724 127.661 368.384 128.911C369.827 129.723 371.198 130.655 372.484 131.696C373.005 132.109 373.754 131.696 373.877 130.809L375.239 121.628C375.361 120.817 374.78 120.251 374.168 120.557C371.612 121.858 365.875 124.245 360.566 122.776C359.999 122.638 359.464 123.174 359.403 123.893Z" fill="#8CC5F9"/>
<path d="M337.126 202.938C336.393 203.409 335.851 204.125 335.596 204.958C335.511 205.216 335.511 205.495 335.596 205.753C335.703 205.984 335.866 206.183 336.07 206.335C338.517 208.514 341.269 210.324 344.24 211.705C344.617 211.898 345.027 212.018 345.449 212.057C345.658 212.081 345.87 212.05 346.063 211.967C346.256 211.883 346.424 211.751 346.551 211.583C346.696 211.338 346.77 211.057 346.765 210.772C346.781 210.247 346.692 209.724 346.501 209.234C346.31 208.745 346.023 208.298 345.656 207.923C345.288 207.547 344.849 207.249 344.364 207.047C343.879 206.845 343.358 206.744 342.833 206.748C342.456 206.779 342.077 206.779 341.7 206.748C341.348 206.658 341.016 206.502 340.721 206.289C339.917 205.82 339.159 205.277 338.457 204.667C337.983 204.114 337.539 203.537 337.126 202.938Z" fill="#473F47"/>
</g>
<defs>
<linearGradient id="paint0_linear" x1="-163.774" y1="-72.0221" x2="985.074" y2="787.166" gradientUnits="userSpaceOnUse">
<stop offset="0.01"/>
<stop offset="0.08" stop-opacity="0.69"/>
<stop offset="0.21" stop-opacity="0.32"/>
<stop offset="1" stop-opacity="0"/>
</linearGradient>
<linearGradient id="paint1_linear" x1="59784.8" y1="21692.4" x2="64185.1" y2="58092.2" gradientUnits="userSpaceOnUse">
<stop offset="0.01"/>
<stop offset="0.08" stop-opacity="0.69"/>
<stop offset="0.21" stop-opacity="0.32"/>
<stop offset="1" stop-opacity="0"/>
</linearGradient>
<linearGradient id="paint2_linear" x1="49799.9" y1="5724.64" x2="48660.4" y2="31551.2" gradientUnits="userSpaceOnUse">
<stop offset="0.01"/>
<stop offset="0.08" stop-opacity="0.69"/>
<stop offset="0.21" stop-opacity="0.32"/>
<stop offset="1" stop-opacity="0"/>
</linearGradient>
<linearGradient id="paint3_linear" x1="49406.5" y1="5717.24" x2="49874.5" y2="18474" gradientUnits="userSpaceOnUse">
<stop offset="0.01"/>
<stop offset="0.08" stop-opacity="0.69"/>
<stop offset="0.21" stop-opacity="0.32"/>
<stop offset="1" stop-opacity="0"/>
</linearGradient>
<linearGradient id="paint4_linear" x1="18028.9" y1="6112.51" x2="17267.4" y2="18952.8" gradientUnits="userSpaceOnUse">
<stop offset="0.01"/>
<stop offset="0.08" stop-opacity="0.69"/>
<stop offset="0.21" stop-opacity="0.32"/>
<stop offset="1" stop-opacity="0"/>
</linearGradient>
<linearGradient id="paint5_linear" x1="8286.34" y1="4272.65" x2="8172.32" y2="5258.5" gradientUnits="userSpaceOnUse">
<stop offset="0.01"/>
<stop offset="0.08" stop-opacity="0.69"/>
<stop offset="0.21" stop-opacity="0.32"/>
<stop offset="1" stop-opacity="0"/>
</linearGradient>
<linearGradient id="paint6_linear" x1="59656.8" y1="6304.16" x2="72484.1" y2="153260" gradientUnits="userSpaceOnUse">
<stop offset="0.01"/>
<stop offset="0.08" stop-opacity="0.69"/>
<stop offset="0.21" stop-opacity="0.32"/>
<stop offset="1" stop-opacity="0"/>
</linearGradient>
<linearGradient id="paint7_linear" x1="46494.3" y1="10692.9" x2="47623.4" y2="21366.6" gradientUnits="userSpaceOnUse">
<stop offset="0.01"/>
<stop offset="0.08" stop-opacity="0.69"/>
<stop offset="0.21" stop-opacity="0.32"/>
<stop offset="1" stop-opacity="0"/>
</linearGradient>
<linearGradient id="paint8_linear" x1="12779.9" y1="9149.93" x2="20480.9" y2="8534.36" gradientUnits="userSpaceOnUse">
<stop offset="0.01"/>
<stop offset="0.08" stop-opacity="0.69"/>
<stop offset="0.21" stop-opacity="0.32"/>
<stop offset="1" stop-opacity="0"/>
</linearGradient>
<linearGradient id="paint9_linear" x1="3942.32" y1="1520.28" x2="6026.87" y2="3347.34" gradientUnits="userSpaceOnUse">
<stop offset="0.01"/>
<stop offset="0.08" stop-opacity="0.69"/>
<stop offset="0.21" stop-opacity="0.32"/>
<stop offset="1" stop-opacity="0"/>
</linearGradient>
<clipPath id="clip0">
<rect width="558" height="386" fill="white"/>
</clipPath>
</defs>
</svg>
