<?xml version="1.0" standalone="no"?>
<!DOCTYPE svg PUBLIC "-//W3C//DTD SVG 20010904//EN"
 "http://www.w3.org/TR/2001/REC-SVG-20010904/DTD/svg10.dtd">
<svg version="1.0" xmlns="http://www.w3.org/2000/svg"
 width="561.000000pt" height="289.000000pt" viewBox="0 0 561.000000 289.000000"
 preserveAspectRatio="xMidYMid meet">

<g transform="translate(0.000000,289.000000) scale(0.100000,-0.100000)"
fill="#000000" stroke="none">
<path d="M0 2544 l0 -345 37 -15 c61 -23 136 -65 171 -96 21 -17 44 -28 63
-28 35 0 129 49 129 67 0 6 -14 46 -31 89 -70 174 -106 393 -94 572 l6 102
-140 0 -141 0 0 -346z"/>
<path d="M2955 2728 c0 -178 -12 -259 -57 -413 -59 -199 -176 -391 -337 -553
-90 -91 -177 -156 -310 -229 -53 -29 -94 -54 -91 -54 3 -1 28 -3 55 -4 41 -1
61 5 115 35 85 48 87 49 208 65 56 7 109 19 117 25 9 7 15 29 15 51 0 39 22
92 108 267 47 95 75 128 121 139 32 7 113 60 125 81 5 8 23 31 40 51 17 20 40
52 50 71 35 64 70 100 116 121 131 60 174 85 212 121 22 21 54 46 71 55 17 9
40 26 50 39 10 13 40 36 65 51 26 15 68 42 94 59 53 36 178 157 178 173 0 8
-143 11 -473 11 l-472 0 0 -162z"/>
<path d="M4420 2878 c0 -7 48 -29 106 -48 77 -25 113 -42 130 -62 12 -16 30
-28 39 -28 19 0 75 -31 75 -41 0 -3 18 -12 40 -19 22 -7 40 -16 40 -20 0 -4
15 -11 34 -14 24 -5 45 -19 66 -46 50 -64 103 -44 66 24 -36 67 -179 190 -244
210 -12 4 -42 18 -65 32 -38 21 -54 24 -164 24 -92 0 -123 -3 -123 -12z"/>
<path d="M5126 2863 c4 -16 11 -36 16 -46 11 -21 54 -152 61 -187 14 -64 18
-138 8 -144 -18 -11 -13 -51 9 -77 38 -43 59 -85 66 -129 7 -47 44 -107 73
-118 22 -8 44 -32 60 -64 8 -16 17 -26 19 -23 3 3 16 -4 28 -16 12 -11 24 -17
27 -12 3 5 -4 51 -15 103 -20 96 -20 112 -2 330 6 67 41 142 94 203 40 45 40
46 40 126 l0 81 -54 0 c-47 0 -57 -4 -75 -26 -29 -37 -26 -48 14 -64 43 -17
47 -41 18 -99 -30 -57 -42 -71 -64 -71 -13 0 -19 7 -19 24 0 13 -7 29 -15 36
-8 7 -15 22 -15 34 0 12 -5 27 -11 33 -7 7 -2 28 20 72 l31 61 -160 0 -160 0
6 -27z"/>
<path d="M5050 2426 c0 -20 50 -50 62 -38 6 6 -1 17 -20 31 -35 25 -42 26 -42
7z"/>
<path d="M1912 2301 c-18 -11 -43 -61 -31 -61 5 0 9 -18 9 -40 0 -29 4 -40 15
-40 11 0 15 11 15 40 0 29 4 40 15 40 8 0 15 5 15 10 0 6 -7 10 -15 10 -8 0
-15 5 -15 10 0 6 7 10 16 10 9 0 14 5 12 12 -6 16 -20 20 -36 9z"/>
<path d="M2415 2290 c-10 -11 -14 -20 -9 -20 5 0 -2 -7 -14 -16 -24 -17 -30
-62 -10 -82 17 -17 78 -16 78 2 0 9 -8 12 -24 9 -13 -3 -27 0 -30 6 -5 7 5 11
28 11 42 0 47 19 15 51 -15 15 -18 24 -10 32 6 6 11 15 11 19 0 14 -16 9 -35
-12z"/>
<path d="M610 2231 c0 -56 3 -71 15 -71 9 0 15 9 15 24 0 18 6 25 23 28 12 2
22 8 22 13 0 6 -10 11 -22 13 -32 5 -29 32 3 32 40 0 23 25 -19 28 l-37 3 0
-70z"/>
<path d="M2070 2230 c0 -56 3 -70 15 -70 12 0 15 14 15 70 0 56 -3 70 -15 70
-12 0 -15 -14 -15 -70z"/>
<path d="M2123 2288 c2 -7 10 -13 17 -13 7 0 15 6 18 13 2 7 -5 12 -18 12 -13
0 -20 -5 -17 -12z"/>
<path d="M1756 2265 c-9 -14 -12 -25 -7 -25 5 0 11 -17 13 -37 3 -33 7 -38 31
-41 15 -2 27 1 27 7 0 6 -7 11 -15 11 -10 0 -15 10 -15 30 0 20 5 30 15 30 8
0 15 5 15 10 0 6 -7 10 -15 10 -8 0 -15 7 -15 15 0 23 -16 18 -34 -10z"/>
<path d="M721 2261 c-20 -13 -5 -30 22 -25 14 3 10 -1 -11 -11 -25 -12 -33
-21 -30 -38 3 -19 10 -22 51 -24 l47 -2 0 39 c0 57 -39 86 -79 61z m39 -71 c0
-5 -4 -10 -10 -10 -5 0 -10 5 -10 10 0 6 5 10 10 10 6 0 10 -4 10 -10z"/>
<path d="M920 2250 c-22 -22 -25 -42 -10 -71 14 -24 90 -28 90 -4 0 11 -7 14
-24 9 -13 -3 -27 -1 -30 5 -5 7 4 11 23 11 26 0 31 4 31 25 0 23 -24 45 -49
45 -6 0 -20 -9 -31 -20z m47 -16 c-3 -3 -12 -4 -19 -1 -8 3 -5 6 6 6 11 1 17
-2 13 -5z"/>
<path d="M1048 2263 c-26 -4 -28 -8 -28 -54 0 -37 4 -49 15 -49 10 0 15 10 15
30 0 19 7 33 20 40 19 10 29 42 13 39 -5 -1 -20 -4 -35 -6z"/>
<path d="M1163 2263 c-21 -8 -15 -51 7 -58 11 -3 20 -11 20 -17 0 -6 -9 -8
-20 -5 -13 3 -20 0 -20 -9 0 -20 66 -19 74 1 8 21 -2 41 -27 54 l-22 12 22 -5
c29 -5 38 20 10 28 -25 6 -27 6 -44 -1z"/>
<path d="M1262 2254 c-24 -17 -30 -62 -10 -82 17 -17 78 -16 78 2 0 9 -8 12
-24 9 -13 -3 -27 0 -30 6 -5 7 5 11 28 11 42 0 47 19 16 50 -24 24 -29 24 -58
4z"/>
<path d="M1558 2263 c-28 -4 -28 -5 -28 -79 0 -59 3 -74 15 -74 9 0 15 9 15
25 0 20 5 25 25 25 36 0 55 42 35 78 -17 28 -23 31 -62 25z m32 -47 c0 -14 -5
-28 -10 -31 -13 -8 -24 20 -16 40 9 24 26 17 26 -9z"/>
<path d="M1662 2254 c-24 -17 -30 -62 -10 -82 17 -17 78 -16 78 2 0 9 -8 12
-24 9 -13 -3 -27 0 -30 6 -5 7 5 11 28 11 42 0 47 19 16 50 -24 24 -29 24 -58
4z"/>
<path d="M1972 2254 c-24 -16 -28 -44 -12 -75 13 -23 80 -28 80 -5 0 9 -8 12
-25 8 -15 -2 -25 0 -25 7 0 6 14 11 30 11 35 0 41 27 12 53 -23 21 -32 21 -60
1z"/>
<path d="M2552 2254 c-24 -17 -30 -62 -10 -82 7 -7 24 -12 38 -12 33 0 50 17
50 51 0 24 -30 59 -50 59 -3 0 -16 -7 -28 -16z m43 -44 c0 -27 -22 -39 -31
-16 -8 22 3 49 19 43 6 -2 12 -14 12 -27z"/>
<path d="M810 2250 c0 -5 9 -10 20 -10 11 0 20 -3 20 -6 0 -3 -9 -17 -20 -31
-29 -37 -25 -43 25 -43 25 0 45 5 45 10 0 6 -12 10 -26 10 l-25 0 20 29 c30
42 26 51 -19 51 -22 0 -40 -4 -40 -10z"/>
<path d="M1362 2213 l3 -48 48 -2 47 -2 0 50 c0 42 -3 49 -19 49 -16 0 -20 -8
-23 -37 -2 -21 -7 -38 -13 -38 -5 0 -11 17 -13 38 -2 25 -8 37 -18 37 -12 0
-14 -11 -12 -47z"/>
<path d="M2120 2210 c0 -43 3 -50 20 -50 17 0 20 7 20 50 0 43 -3 50 -20 50
-17 0 -20 -7 -20 -50z"/>
<path d="M2170 2250 c0 -5 9 -10 20 -10 25 0 25 -8 0 -40 -28 -36 -25 -40 25
-40 25 0 45 5 45 10 0 6 -9 10 -20 10 -25 0 -25 8 0 40 28 36 25 40 -25 40
-25 0 -45 -4 -45 -10z"/>
<path d="M4430 2226 c0 -15 112 -86 136 -86 26 0 -2 35 -54 69 -52 33 -82 40
-82 17z"/>
<path d="M2267 2160 c-6 -24 12 -38 24 -19 13 21 11 39 -5 39 -7 0 -16 -9 -19
-20z"/>
<path d="M4560 2070 c0 -5 5 -10 11 -10 5 0 7 5 4 10 -3 6 -8 10 -11 10 -2 0
-4 -4 -4 -10z"/>
<path d="M1902 2038 c-7 -7 -12 -17 -12 -23 0 -5 -9 -16 -20 -23 -39 -24 -18
-92 28 -92 37 0 52 17 52 57 0 23 -6 36 -22 44 -19 10 -19 12 -5 21 10 5 17
13 17 18 0 14 -24 12 -38 -2z m13 -86 c0 -31 -19 -28 -23 4 -3 18 0 25 10 22
7 -3 13 -14 13 -26z"/>
<path d="M2063 2028 c2 -7 10 -13 17 -13 7 0 15 6 18 13 2 7 -5 12 -18 12 -13
0 -20 -5 -17 -12z"/>
<path d="M2366 2032 c-2 -4 -2 -27 1 -50 8 -56 27 -49 31 11 2 36 0 47 -12 47
-8 0 -17 -4 -20 -8z"/>
<path d="M2128 2011 c-13 -16 -14 -27 -6 -65 9 -42 12 -46 39 -46 16 0 29 5
29 10 0 6 -7 10 -15 10 -10 0 -15 10 -15 30 0 20 5 30 15 30 8 0 15 5 15 10 0
6 -5 10 -11 10 -7 0 -17 7 -23 15 -10 14 -13 13 -28 -4z"/>
<path d="M858 2003 c-26 -4 -28 -8 -28 -54 0 -42 3 -49 20 -49 17 0 20 7 20
41 0 52 24 48 28 -4 2 -24 8 -37 18 -37 23 0 19 87 -5 100 -11 5 -21 9 -23 9
-2 -1 -15 -4 -30 -6z"/>
<path d="M972 1994 c-24 -17 -30 -62 -10 -82 7 -7 24 -12 38 -12 33 0 50 17
50 51 0 24 -30 59 -50 59 -3 0 -16 -7 -28 -16z m43 -44 c0 -13 -6 -25 -12 -27
-16 -6 -27 21 -19 43 9 23 31 11 31 -16z"/>
<path d="M1075 1996 c-22 -16 -14 -46 15 -53 11 -3 20 -10 20 -15 0 -6 -11 -7
-25 -4 -18 5 -25 2 -25 -9 0 -21 63 -20 81 1 12 14 9 20 -16 40 -28 23 -29 24
-7 24 25 0 30 15 6 24 -22 9 -28 8 -49 -8z"/>
<path d="M1178 1999 c-26 -14 -22 -34 10 -59 l27 -21 -27 6 c-21 4 -28 2 -28
-10 0 -13 9 -15 38 -13 49 4 58 38 15 63 -24 14 -24 15 -6 12 27 -6 42 11 22
24 -18 11 -30 11 -51 -2z"/>
<path d="M1272 1994 c-40 -28 -22 -94 26 -94 37 0 52 17 52 57 0 22 -6 36 -19
43 -26 13 -33 13 -59 -6z m43 -42 c0 -31 -19 -28 -23 4 -3 18 0 25 10 22 7 -3
13 -14 13 -26z"/>
<path d="M1448 2003 c-28 -4 -28 -5 -28 -79 0 -59 3 -74 15 -74 9 0 15 9 15
25 0 19 5 25 23 25 31 0 47 18 47 51 0 26 -23 61 -38 58 -4 -1 -19 -4 -34 -6z
m36 -38 c7 -18 -2 -45 -15 -45 -13 0 -22 27 -15 45 3 8 10 15 15 15 5 0 11 -7
15 -15z"/>
<path d="M1568 2002 c-26 -3 -28 -6 -28 -53 0 -37 4 -49 15 -49 10 0 15 11 15
35 0 24 5 35 14 35 18 0 31 19 20 29 -5 4 -21 5 -36 3z"/>
<path d="M1638 1999 c-21 -12 -24 -69 -6 -87 7 -7 24 -12 38 -12 14 0 31 5 38
12 20 20 14 65 -10 82 -26 18 -36 19 -60 5z m46 -36 c4 -9 0 -23 -8 -32 -14
-13 -16 -13 -22 2 -7 20 1 47 15 47 5 0 12 -8 15 -17z"/>
<path d="M1768 2003 c-28 -4 -28 -5 -28 -79 0 -59 3 -74 15 -74 9 0 15 9 15
25 0 19 5 25 23 25 31 0 47 18 47 51 0 26 -23 61 -38 58 -4 -1 -19 -4 -34 -6z
m36 -38 c7 -18 -2 -45 -15 -45 -5 0 -12 7 -15 15 -7 18 2 45 15 45 5 0 11 -7
15 -15z"/>
<path d="M1983 2003 c-21 -8 -15 -51 7 -58 11 -3 20 -11 20 -17 0 -6 -9 -8
-20 -5 -13 3 -20 0 -20 -9 0 -20 66 -19 74 1 8 21 -2 41 -27 54 l-22 12 22 -5
c29 -5 38 20 10 28 -25 6 -27 6 -44 -1z"/>
<path d="M2218 1999 c-21 -12 -24 -69 -6 -87 7 -7 24 -12 38 -12 14 0 31 5 38
12 20 20 14 65 -10 82 -26 18 -36 19 -60 5z m46 -36 c4 -9 0 -23 -8 -32 -14
-13 -16 -13 -22 2 -7 20 1 47 15 47 5 0 12 -8 15 -17z"/>
<path d="M2060 1950 c0 -43 3 -50 20 -50 17 0 20 7 20 50 0 43 -3 50 -20 50
-17 0 -20 -7 -20 -50z"/>
<path d="M5507 1983 c-2 -5 -1 -39 3 -78 3 -38 2 -87 -2 -109 -7 -29 -5 -44 7
-62 23 -35 18 -69 -14 -101 -21 -22 -26 -34 -20 -45 7 -12 2 -25 -15 -46 -16
-18 -23 -36 -20 -49 6 -23 -34 -68 -73 -84 -31 -12 -70 4 -78 33 -4 13 -22 39
-39 59 -17 20 -53 64 -79 98 -27 33 -55 61 -62 61 -7 0 -33 23 -59 50 -26 28
-51 50 -57 50 -5 0 -12 7 -16 15 -3 9 -19 23 -36 32 -17 8 -37 22 -45 29 -7 8
-20 14 -27 14 -8 0 -18 6 -22 13 -16 25 -59 45 -86 40 -31 -6 -77 -56 -77 -83
0 -10 -6 -20 -12 -23 -10 -3 -10 -8 1 -21 9 -11 15 -51 18 -119 2 -56 8 -115
14 -130 18 -42 7 -40 -31 6 -19 23 -44 44 -55 45 -16 3 -18 1 -7 -9 6 -7 12
-17 12 -21 0 -11 -38 -10 -45 2 -3 5 -13 6 -21 3 -13 -5 -10 -9 12 -18 16 -7
35 -10 42 -7 16 5 42 -16 42 -34 0 -12 -5 -11 -26 2 -20 14 -27 15 -34 5 -6
-11 -9 -11 -13 0 -4 11 -6 11 -6 1 -1 -7 -6 -10 -13 -6 -7 5 -9 2 -6 -7 5 -12
-2 -14 -31 -12 -36 4 -36 3 -13 -13 25 -19 28 -30 8 -37 -8 -3 -24 3 -37 14
-26 22 -38 17 -18 -8 11 -15 11 -16 -1 -5 -8 6 -24 12 -36 12 -13 0 -26 5 -30
12 -5 8 -9 7 -13 -5 -6 -15 -9 -15 -34 -2 -30 15 -30 13 -9 -44 3 -9 1 -12 -6
-7 -7 4 -12 13 -12 20 0 7 -9 21 -20 31 -12 11 -20 13 -20 6 0 -7 -5 -9 -10
-6 -6 4 -8 11 -5 16 4 5 -1 9 -10 9 -9 0 -14 -4 -11 -9 3 -4 -6 -6 -19 -3 -14
2 -25 8 -25 12 0 9 -68 25 -95 22 -10 -1 -23 -8 -27 -15 -6 -9 -8 -9 -8 0 0
15 -21 13 -32 -2 -4 -6 -8 -2 -8 8 0 10 11 22 24 27 31 12 54 49 36 60 -9 6
-9 9 1 13 9 3 5 6 -7 6 -21 1 -40 25 -35 45 1 5 -5 4 -13 -4 -17 -14 -22 -25
-7 -15 5 3 12 1 15 -4 7 -11 -8 -8 -48 8 -22 9 -31 9 -37 0 -4 -6 -11 -9 -17
-5 -6 3 -17 0 -25 -8 -8 -8 -17 -12 -20 -9 -3 3 -9 -6 -13 -21 -3 -14 -10 -24
-14 -21 -4 3 -11 -2 -14 -11 -3 -8 -10 -13 -15 -10 -5 4 -7 -7 -5 -24 3 -18 1
-30 -6 -30 -7 0 -8 -6 -1 -19 12 -21 5 -31 -20 -31 -15 0 -17 -6 -12 -32 3
-18 14 -54 23 -80 13 -33 14 -50 7 -57 -8 -8 -6 -11 7 -11 12 0 16 -5 12 -15
-3 -8 0 -14 7 -12 7 1 12 -5 12 -13 1 -12 21 -62 42 -102 2 -4 -4 -5 -14 -1
-16 6 -16 5 -4 -11 13 -16 12 -17 -10 -13 -13 2 -18 2 -11 0 6 -3 12 -9 12
-14 0 -6 -6 -7 -12 -3 -8 4 -9 3 -5 -2 5 -5 14 -9 20 -9 7 0 12 -4 12 -10 0
-5 -4 -9 -8 -7 -4 1 -3 -7 3 -18 10 -19 9 -20 -16 -14 -18 5 -25 3 -20 -4 3
-6 0 -12 -6 -15 -10 -3 -8 -10 6 -26 14 -16 16 -21 5 -21 -11 0 -11 -2 1 -11
12 -8 12 -12 2 -16 -10 -4 -9 -8 5 -19 11 -8 13 -13 5 -14 -10 0 -9 -7 2 -34
8 -19 11 -38 8 -42 -4 -4 1 -4 11 -1 15 6 17 3 12 -12 -4 -13 0 -23 12 -30 16
-9 15 -10 -9 -11 -20 0 -26 -4 -22 -15 4 -8 14 -15 23 -15 14 0 14 -2 1 -10
-8 -5 -11 -10 -6 -10 5 0 3 -6 -3 -13 -8 -10 -7 -19 4 -33 20 -26 19 -34 -5
-34 -11 0 -20 -5 -20 -11 0 -6 9 -9 20 -6 11 3 18 1 15 -3 -3 -5 -1 -11 4 -15
13 -8 60 45 54 61 -3 7 7 25 21 39 19 18 21 25 9 25 -10 0 -13 5 -8 17 3 10 7
22 8 28 1 5 7 15 13 22 6 6 9 24 6 38 -2 14 -1 25 4 23 5 -2 10 0 12 5 7 23
-1 36 -30 47 -25 10 -28 14 -15 17 19 5 24 23 6 23 -6 0 -9 7 -6 14 4 9 1 13
-7 10 -9 -3 -12 6 -12 30 0 19 3 34 6 34 26 -2 28 5 8 27 -68 76 -68 76 -39
68 11 -3 22 -16 26 -30 5 -20 11 -24 33 -20 15 2 21 2 15 0 -20 -7 -15 -19 15
-42 20 -16 22 -20 7 -15 -19 5 -19 5 -2 -9 10 -8 27 -12 39 -9 16 4 19 2 13
-8 -6 -10 -3 -12 11 -8 11 3 25 -1 32 -9 7 -7 22 -13 32 -13 13 0 20 -7 20
-20 0 -14 -5 -18 -17 -13 -15 5 -14 3 2 -10 14 -12 16 -16 6 -17 -8 0 -12 -3
-9 -6 4 -3 17 0 30 7 20 11 22 10 10 -3 -12 -16 -7 -48 8 -48 5 0 8 -18 7 -40
-1 -37 -4 -40 -32 -41 -29 0 -111 -27 -89 -28 18 -2 12 -30 -8 -37 -10 -3 -18
-14 -18 -25 0 -15 -6 -18 -22 -16 -13 2 -18 2 -12 0 7 -2 14 -12 17 -22 3 -14
0 -17 -13 -14 -10 3 -21 0 -24 -6 -4 -6 -1 -11 6 -11 9 -1 7 -5 -4 -14 -10 -7
-14 -17 -10 -21 4 -4 -6 -5 -23 -1 -22 5 -26 4 -15 -4 12 -8 12 -10 1 -10 -10
0 -11 -3 -2 -14 9 -11 8 -15 -6 -20 -15 -6 -15 -8 -3 -16 12 -8 11 -10 -7 -10
-13 0 -24 -8 -28 -21 -4 -12 -12 -18 -21 -15 -8 3 -14 -1 -14 -9 0 -8 -6 -15
-14 -15 -8 0 -18 -5 -21 -10 -4 -7 3 -8 21 -4 18 5 25 3 20 -4 -3 -6 -22 -8
-42 -6 -20 2 -33 0 -30 -5 8 -13 -19 -8 -37 7 -15 12 -51 6 -42 -7 6 -11 -27
-6 -52 7 -13 7 -23 9 -23 4 0 -5 -6 -9 -13 -9 -9 0 -14 13 -13 41 0 39 -1 41
-29 39 -20 -2 -25 1 -16 6 8 6 11 16 6 31 -6 17 -4 21 6 14 12 -6 12 -5 0 9
-12 15 -11 17 8 17 19 0 20 2 9 20 -11 17 -10 22 1 29 22 14 19 105 -3 130
-11 12 -15 27 -11 40 5 17 0 20 -49 26 -31 4 -53 11 -50 16 8 13 -9 11 -51 -7
-29 -12 -40 -13 -45 -3 -4 6 -20 13 -34 14 -14 2 -24 0 -21 -5 7 -11 -5 -40
-17 -40 -22 0 -168 -93 -173 -111 -4 -12 2 -34 14 -55 12 -19 21 -51 21 -71 0
-24 7 -42 21 -54 l21 -18 -21 -43 c-26 -54 -15 -75 55 -101 27 -11 68 -28 92
-40 l43 -20 -27 -28 c-33 -35 -74 -52 -110 -46 -28 4 -28 4 4 6 29 1 32 4 32
31 0 28 -2 30 -20 20 -11 -6 -20 -15 -20 -19 0 -5 -9 -11 -20 -14 -11 -3 -20
-3 -20 -1 0 3 9 14 20 26 11 12 20 27 19 32 0 6 -3 5 -6 -2 -4 -10 -8 -10 -19
-1 -12 10 -23 8 -53 -9 -49 -28 -56 -28 -28 1 12 13 28 21 35 19 12 -4 12 -1
1 17 -18 27 -27 27 -39 -4 -12 -31 -17 -32 -16 -2 1 13 -4 21 -12 19 -7 -1
-15 5 -18 13 -8 19 -28 19 -44 0 -13 -15 -35 -11 -25 6 4 5 4 9 0 9 -3 0 -10
-10 -15 -22 -8 -19 -9 -17 -4 12 4 26 3 31 -5 20 -9 -13 -11 -13 -11 3 0 12
-8 17 -26 17 -18 0 -28 6 -31 20 -8 30 -37 20 -44 -15 -4 -17 -7 -22 -8 -11
-1 12 -6 16 -16 12 -9 -3 -15 0 -15 9 0 8 -7 15 -15 15 -8 0 -14 3 -13 8 1 4
-2 24 -6 45 -8 36 -10 37 -50 37 -49 0 -51 2 -99 61 -50 63 -52 114 -4 161 18
18 54 42 80 53 50 20 58 31 30 37 -10 3 2 8 27 12 64 12 71 20 25 28 -22 3 13
4 78 1 122 -5 128 -3 107 37 -24 44 -151 55 -222 19 -49 -25 -47 -4 2 23 41
22 100 23 163 4 26 -8 47 -13 47 -11 0 14 -74 111 -88 116 -12 5 -33 -3 -62
-22 -29 -20 -55 -29 -83 -29 -32 0 -44 -6 -66 -31 -105 -123 -99 -119 -146
-112 -40 5 -46 3 -89 -37 l-45 -42 -88 -3 c-52 -1 -94 2 -102 8 -10 9 -19 3
-40 -22 -24 -29 -32 -33 -57 -27 -16 4 -49 9 -74 10 -25 1 -53 6 -62 10 -12 5
-20 1 -28 -14 -18 -33 -5 -67 28 -73 63 -13 105 -74 65 -95 -22 -12 -205 -7
-230 6 -36 19 -53 4 -103 -93 -17 -35 -26 -41 -55 -43 -48 -4 -63 35 -41 105
10 30 -22 47 -61 32 -15 -6 -29 -10 -30 -10 -2 1 -12 -8 -22 -18 -22 -22 -82
-37 -106 -27 -9 3 -23 22 -31 41 -8 19 -18 36 -22 36 -36 7 -60 5 -77 -6 -11
-7 -30 -11 -42 -9 -17 3 -26 -4 -37 -24 -8 -16 -23 -28 -36 -29 -19 -2 -21 2
-17 42 3 33 0 42 -10 38 -7 -3 -13 0 -13 7 0 7 -7 10 -14 7 -9 -4 -17 2 -21
14 -4 13 -12 18 -22 15 -8 -4 -28 5 -45 19 -39 33 -65 32 -103 -5 l-32 -31
-33 18 c-42 22 -54 33 -63 56 -4 9 -13 20 -22 22 -8 3 -23 8 -32 11 -10 4 -27
6 -39 5 -11 -1 -32 2 -46 8 -14 5 -29 6 -34 2 -5 -5 -36 -3 -69 4 -33 7 -75
10 -93 8 -24 -4 -42 1 -72 21 -22 14 -45 26 -53 26 -18 0 -77 56 -77 73 0 8
-7 20 -15 27 -14 12 -28 15 -77 19 -48 3 -63 72 -28 128 27 46 84 80 197 119
54 18 107 38 118 43 11 5 32 14 48 20 28 11 41 34 52 93 6 31 2 40 -39 84 -25
27 -46 54 -46 60 0 6 -13 27 -29 47 -15 20 -33 49 -38 64 -6 15 -16 44 -22 63
-24 67 -21 89 18 121 97 80 169 28 185 -136 15 -145 18 -160 32 -176 8 -9 32
-22 55 -29 34 -11 64 -11 197 3 86 10 177 17 202 17 45 1 44 1 -85 65 -191 95
-355 227 -483 388 l-46 59 -19 -26 c-10 -14 -26 -26 -35 -26 -21 -1 -62 -35
-91 -77 -12 -18 -27 -33 -33 -33 -6 0 -17 -8 -24 -17 -12 -17 -13 -17 -14 -1
0 13 -6 15 -27 12 -14 -3 -34 -9 -43 -14 -38 -20 -135 -28 -187 -15 l-33 8 0
-882 0 -881 2805 0 2805 0 0 975 c0 817 -2 975 -14 975 -7 0 -25 9 -39 20 -26
21 -43 25 -50 13z m-458 -447 c29 -34 40 -54 36 -67 -4 -11 -2 -19 4 -19 6 0
11 -8 11 -18 0 -10 4 -22 9 -27 6 -6 10 -48 11 -95 2 -112 2 -110 -12 -107 -7
1 -16 -18 -21 -48 -6 -27 -13 -52 -17 -55 -3 -3 -10 -13 -13 -24 -5 -12 -14
-17 -27 -13 -11 3 -23 1 -26 -4 -3 -5 0 -9 5 -9 6 0 11 -5 11 -11 0 -6 -9 -8
-21 -4 -18 6 -21 4 -18 -11 3 -11 -5 -28 -18 -41 l-22 -22 0 74 c0 41 -2 79
-6 85 -3 5 1 30 10 55 8 25 15 77 15 115 0 40 4 70 10 70 6 0 10 -15 10 -34 0
-18 7 -39 15 -46 9 -7 14 -19 11 -26 -3 -8 0 -11 8 -8 9 3 15 35 20 92 7 92
-9 165 -49 226 -17 25 -17 26 2 23 11 -1 39 -24 62 -51z m-1182 -68 c-3 -8 -6
-5 -6 6 -1 11 2 17 5 13 3 -3 4 -12 1 -19z m746 -16 c5 -1 6 -6 2 -11 -3 -5
-1 -12 5 -16 12 -7 4 -25 -11 -25 -5 0 -14 11 -21 25 -6 13 -14 22 -19 20 -4
-3 -10 -1 -13 3 -4 8 27 9 57 4z m-697 -14 c4 -6 3 -8 -4 -4 -5 3 -13 0 -15
-6 -3 -8 -6 -6 -6 5 -1 19 14 23 25 5z m-42 -24 c3 -8 2 -12 -4 -9 -6 3 -10
10 -10 16 0 14 7 11 14 -7z m231 -24 c-3 -5 -11 -10 -16 -10 -6 0 -7 5 -4 10
3 6 11 10 16 10 6 0 7 -4 4 -10z m-72 -99 c-2 -3 -8 0 -14 6 -7 7 -9 22 -4 40
l9 28 6 -35 c3 -19 5 -37 3 -39z m632 -11 c3 -5 -1 -10 -9 -10 -9 0 -16 5 -16
10 0 6 4 10 9 10 6 0 13 -4 16 -10z m-331 -35 c-4 -8 -10 -12 -15 -9 -14 8
-10 24 6 24 9 0 12 -6 9 -15z m286 -12 c0 -13 -3 -13 -15 -3 -8 7 -12 16 -9
21 8 13 24 1 24 -18z m-102 -19 c18 -8 32 -19 32 -24 0 -6 10 -6 23 -1 16 6
30 3 50 -11 30 -21 35 -49 12 -68 -10 -9 -15 -9 -15 -1 0 6 -7 11 -15 11 -16
0 -16 -1 -20 -38 -1 -12 -5 -25 -9 -29 -3 -3 0 -13 7 -21 10 -13 8 -14 -11 -8
-18 6 -22 4 -22 -14 0 -12 -4 -19 -9 -16 -12 8 -42 -4 -36 -14 5 -8 -43 -25
-59 -21 -5 1 -13 -3 -17 -10 -6 -11 -39 -13 -153 -9 -16 1 -34 -4 -39 -9 -17
-17 -26 -13 -20 8 3 12 17 23 33 26 20 4 27 11 23 21 -3 8 6 20 24 31 17 9 35
28 41 42 28 62 95 153 123 164 22 8 24 8 57 -9z m942 -35 c0 -17 -21 -19 -50
-4 -36 19 -37 27 -7 41 18 9 25 7 40 -9 9 -10 17 -23 17 -28z m-1186 16 c5
-15 1 -16 -55 -18 -14 -1 -26 -7 -26 -14 0 -9 6 -9 21 -2 20 10 21 10 2 -5
-24 -19 -38 -20 -54 -4 -22 22 -22 22 83 53 19 6 23 5 29 -10z m-121 -58 c15
-23 15 -24 -19 -25 -25 -1 -33 2 -28 11 4 7 3 8 -2 4 -5 -5 -10 -13 -10 -18
-1 -5 -2 -12 -3 -15 0 -4 -8 -1 -16 6 -8 6 -20 8 -27 4 -7 -4 -10 -4 -6 1 4 4
2 17 -3 28 -9 16 -13 17 -20 6 -7 -11 -9 -11 -9 3 0 20 39 35 49 19 5 -8 13
-7 26 3 23 17 45 8 68 -27z m1203 -24 c-7 -7 -26 7 -26 19 0 6 6 6 15 -2 9 -7
13 -15 11 -17z m-549 -135 c-7 -4 -8 -8 -3 -8 5 0 -1 -11 -14 -25 -13 -14 -18
-25 -12 -25 9 0 9 -6 0 -22 -7 -13 -16 -25 -19 -28 -3 -3 -9 -12 -12 -20 -3
-8 -6 3 -8 25 -1 24 -3 31 -6 18 -2 -13 -8 -23 -11 -23 -4 0 -16 -16 -26 -35
-11 -19 -24 -35 -31 -35 -16 0 -40 53 -26 58 5 2 7 10 4 18 -5 13 -7 13 -14 3
-4 -8 -11 -10 -15 -6 -9 8 31 49 66 67 14 7 31 21 38 31 9 13 24 17 56 16 24
-1 39 -5 33 -9z m9 -65 c-10 -10 -19 5 -10 18 6 11 8 11 12 0 2 -7 1 -15 -2
-18z m-216 -41 c0 -9 -25 -33 -47 -46 -15 -8 -6 21 11 41 13 14 36 17 36 5z
m-102 -34 c-11 -35 -100 -56 -158 -38 l-25 8 26 1 c14 1 30 6 37 13 6 6 31 15
54 19 65 10 70 10 66 -3z m-876 -60 c-9 -9 -15 -9 -24 0 -9 9 -7 12 12 12 19
0 21 -3 12 -12z m703 2 c-3 -5 -10 -10 -16 -10 -5 0 -9 5 -9 10 0 6 7 10 16
10 8 0 12 -4 9 -10z m-348 -146 c-3 -3 -12 -4 -19 -1 -8 3 -5 6 6 6 11 1 17
-2 13 -5z m-3063 -102 c2 -4 -4 -19 -14 -32 -19 -24 -19 -25 -37 -6 -13 13
-15 20 -5 23 6 3 10 9 6 14 -3 5 6 9 20 9 14 0 27 -4 30 -8z m2356 -126 c0 -2
-8 -10 -17 -17 -16 -13 -17 -12 -4 4 13 16 21 21 21 13z m179 -192 c-18 -21
-68 -46 -82 -40 -7 2 -6 5 4 5 8 1 30 12 49 26 39 29 48 32 29 9z m30 -70
c-13 -14 -37 -32 -54 -40 -17 -8 -22 -9 -11 -2 11 7 33 25 50 40 39 35 47 36
15 2z"/>
<path d="M4712 910 c0 -14 2 -19 5 -12 2 6 2 18 0 25 -3 6 -5 1 -5 -13z"/>
<path d="M2367 1923 c-13 -12 -7 -23 13 -23 11 0 20 7 20 15 0 15 -21 21 -33
8z"/>
<path d="M3046 1807 c-3 -19 -19 -48 -35 -66 -26 -29 -32 -61 -11 -61 4 0 5
-11 3 -24 -7 -35 13 -41 34 -10 10 14 37 46 61 69 39 40 54 75 33 75 -5 0 -19
11 -32 25 -32 33 -46 31 -53 -8z"/>
<path d="M4284 1730 c-5 -4 -20 -10 -34 -13 -23 -4 -22 -4 5 -5 33 -2 63 12
48 21 -6 4 -14 2 -19 -3z"/>
<path d="M4283 1697 c-4 -8 -28 -22 -53 -31 -25 -9 -34 -14 -21 -12 17 4 25
-1 28 -15 5 -16 8 -18 15 -7 6 9 11 9 14 2 3 -6 16 -9 31 -6 18 3 24 1 19 -7
-5 -7 1 -11 16 -11 19 -1 20 -2 7 -10 -10 -6 -29 -6 -49 0 -19 5 -36 8 -38 5
-6 -5 46 -26 71 -28 19 -1 24 -17 5 -17 -7 0 2 -14 19 -30 19 -17 39 -27 48
-24 8 3 12 10 9 15 -6 11 40 2 68 -12 27 -14 27 -11 -1 20 -14 16 -27 25 -29
21 -2 -5 -9 -7 -17 -4 -8 3 -12 11 -9 19 3 7 -2 15 -11 19 -11 4 -14 12 -10
26 4 12 2 20 -5 20 -6 0 -8 -5 -4 -11 4 -7 1 -10 -7 -7 -8 3 -13 11 -11 18 1
6 -9 21 -24 33 -25 19 -26 21 -8 28 16 6 16 8 2 8 -9 1 -23 4 -31 7 -8 3 -19
-1 -24 -9z m-13 -37 c0 -5 -2 -10 -4 -10 -3 0 -8 5 -11 10 -3 6 -1 10 4 10 6
0 11 -4 11 -10z"/>
<path d="M3390 1690 c0 -6 -5 -8 -12 -4 -7 4 -8 3 -4 -4 5 -8 -2 -12 -19 -12
-17 0 -24 -4 -19 -12 5 -8 2 -9 -9 -5 -23 9 -21 -2 9 -47 l27 -39 -24 6 c-33
8 -128 18 -106 11 14 -5 16 -9 6 -20 -6 -8 -17 -14 -25 -14 -7 0 -25 -12 -38
-27 -23 -25 -24 -29 -11 -50 8 -12 15 -33 15 -45 0 -27 57 -121 83 -137 13 -9
23 -8 42 5 18 12 25 13 25 4 0 -9 4 -9 17 1 15 13 16 11 9 -13 -9 -38 10 -36
32 2 9 16 24 30 32 30 9 0 23 9 33 20 9 11 26 20 37 20 12 0 18 4 15 10 -9 14
14 52 27 44 7 -4 8 -3 4 5 -4 6 -12 8 -18 5 -6 -4 -9 -1 -7 5 3 7 8 11 13 9 5
-2 13 7 17 20 5 13 13 20 19 17 5 -3 10 3 10 13 0 11 7 35 15 55 19 47 16 103
-7 123 -17 16 -18 15 -18 -19 0 -21 -4 -37 -10 -37 -5 0 -10 -9 -10 -20 0 -11
-4 -20 -10 -20 -5 0 -10 -9 -10 -20 0 -11 -5 -20 -11 -20 -5 0 -7 5 -4 10 3 6
2 10 -2 10 -5 0 -16 18 -26 41 -12 27 -27 43 -47 50 -20 8 -28 16 -25 30 2 10
0 21 -6 24 -5 4 -9 1 -9 -5z m4 -35 c-4 -8 -10 -12 -15 -9 -11 6 -2 24 11 24
5 0 7 -7 4 -15z m66 -147 c0 -18 -2 -20 -9 -8 -6 8 -7 18 -5 22 9 14 14 9 14
-14z m-130 3 c0 -5 -7 -14 -15 -21 -13 -10 -15 -9 -15 9 0 12 6 21 15 21 8 0
15 -4 15 -9z"/>
<path d="M4433 1603 c12 -14 25 -19 35 -15 15 5 14 7 -3 10 -11 2 -27 9 -35
15 -8 7 -7 2 3 -10z"/>
<path d="M4128 1533 c7 -3 16 -2 19 1 4 3 -2 6 -13 5 -11 0 -14 -3 -6 -6z"/>
<path d="M4495 1530 c3 -5 11 -10 16 -10 6 0 7 5 4 10 -3 6 -11 10 -16 10 -6
0 -7 -4 -4 -10z"/>
<path d="M4440 1507 c0 -3 12 -12 26 -22 15 -9 23 -12 20 -6 -7 11 -46 35 -46
28z"/>
<path d="M3015 1395 c-41 -93 -98 -125 -144 -81 -48 45 -63 39 -80 -32 -16
-69 -11 -88 28 -108 28 -14 52 -9 81 18 38 35 69 47 103 37 17 -5 32 -7 35 -5
2 2 6 37 8 78 2 40 7 87 9 105 9 54 -13 47 -40 -12z"/>
<path d="M3611 1318 c0 -9 -4 -25 -7 -35 -5 -14 -4 -15 5 -7 7 7 11 22 8 35
-2 13 -5 16 -6 7z"/>
<path d="M3549 1263 c-6 -7 -8 -13 -3 -13 5 0 2 -5 -6 -10 -8 -5 -10 -10 -4
-10 9 0 54 36 54 44 0 9 -32 1 -41 -11z"/>
<path d="M3510 1205 c-9 -11 -8 -14 9 -12 22 1 28 12 12 21 -5 3 -14 -1 -21
-9z"/>
<path d="M2938 813 c6 -2 18 -2 25 0 6 3 1 5 -13 5 -14 0 -19 -2 -12 -5z"/>
<path d="M3890 551 c-13 -26 -13 -28 5 -28 8 0 15 6 15 14 0 7 8 13 18 13 14
0 15 2 2 10 -22 14 -28 12 -40 -9z"/>
<path d="M3360 235 c-19 -23 -8 -26 19 -4 16 13 18 19 8 19 -8 0 -20 -7 -27
-15z"/>
</g>
</svg>
