<svg width="561" height="289" viewBox="0 0 561 289" fill="none" xmlns="http://www.w3.org/2000/svg">
<g clip-path="url(#clip0)">
<path opacity="0.24" d="M153.14 46.9811C126.481 60.8126 96.964 68.2583 69.5399 80.5202C42.1158 92.7821 15.6175 111.631 4.26678 139.549C1.12723 147.209 -0.751135 155.648 0.281965 163.925C2.62992 182.707 18.918 196.418 35.3403 205.742C71.1902 226.12 112.635 234.76 149.209 253.824C164.974 262.047 179.786 272.176 196.168 279.058C236.124 295.841 284.411 291.133 320.328 266.837C334.792 257.07 347.323 244.419 362.819 236.424C386.97 223.96 415.508 224.188 442.704 224.993C469.9 225.798 498.263 226.67 522.963 215.254C547.664 203.837 567.065 175.892 559.189 149.839C554.278 133.552 540.07 121.666 524.962 113.818C509.855 105.97 493.299 101.247 478.164 93.4663C434.6 71.0353 405.579 24.966 359.774 7.60613C322.998 -6.42665 282.613 0.992211 246.522 13.5493C231.254 18.9155 216.186 17.9496 200.905 22.8061C183.892 28.1992 168.878 38.7304 153.14 46.9811Z" fill="#8CC5F9"/>
<path d="M265.882 186.88C189.594 186.88 129.849 169.238 129.849 146.714C129.849 124.189 189.594 106.561 265.882 106.561C342.171 106.561 401.903 124.202 401.903 146.714C401.903 169.225 342.157 186.88 265.882 186.88ZM265.882 110.196C194.115 110.196 133.485 126.926 133.485 146.714C133.485 166.502 194.115 183.244 265.882 183.244C337.649 183.244 398.267 166.515 398.267 146.714C398.267 126.912 337.622 110.196 265.882 110.196Z" fill="#8CC5F9"/>
<path d="M270.042 224.967C207.774 224.967 149.196 217.454 105.108 203.811C60.3491 189.952 35.7426 171.251 35.7426 151.127C35.7426 131.004 60.3894 112.302 105.148 98.4441C149.236 84.8138 207.814 77.2876 270.082 77.2876C332.35 77.2876 390.941 84.8138 435.015 98.4441C479.788 112.302 504.434 131.017 504.434 151.127C504.434 171.237 479.788 189.952 435.015 203.811C390.901 217.454 332.323 224.967 270.042 224.967ZM270.042 81.0708C208.136 81.0708 149.96 88.5299 106.235 102.066C63.8107 115.187 39.4725 133.07 39.4725 151.127C39.4725 169.185 63.8107 187.068 106.235 200.202C149.96 213.738 208.203 221.184 270.042 221.184C331.88 221.184 390.136 213.738 433.862 200.202C476.286 187.068 500.611 169.185 500.611 151.127C500.611 133.07 476.286 115.187 433.862 102.066C390.136 88.5702 331.96 81.0708 270.042 81.0708Z" fill="#8CC5F9"/>
<path d="M267.747 76.2546C260.91 76.171 254.125 77.4483 247.786 80.0122C241.447 82.5761 235.682 86.3754 230.826 91.1888C225.97 96.0022 222.121 101.733 219.501 108.049C216.882 114.364 215.545 121.138 215.569 127.975C215.593 134.812 216.978 141.576 219.641 147.873C222.305 154.169 226.195 159.874 231.084 164.653C235.974 169.432 241.766 173.19 248.122 175.71C254.479 178.229 261.273 179.459 268.11 179.327C281.638 179.066 294.521 173.498 303.979 163.823C313.437 154.148 318.712 141.142 318.664 127.613C318.617 114.083 313.251 101.115 303.725 91.5065C294.199 81.8981 281.277 76.4201 267.747 76.2546ZM275.395 99.9869C275.379 99.8433 275.407 99.6982 275.475 99.571C275.623 99.3563 275.784 99.0746 275.999 99.0209C276.213 98.9673 276.441 99.1954 276.737 99.3429C276.186 99.893 276.428 100.202 276.898 100.443C277.011 100.497 277.108 100.58 277.179 100.684C277.303 101.063 277.474 101.423 277.689 101.758C278.009 102.016 278.366 102.225 278.749 102.375C278.439 102.659 278.107 102.919 277.756 103.153C277.417 103.359 277.052 103.517 276.669 103.623C276.357 103.656 276.042 103.656 275.73 103.623C275.736 103.565 275.736 103.506 275.73 103.448L276.374 103.046C276.146 102.764 275.811 102.522 275.784 102.254C275.757 101.986 276.066 101.718 276.254 101.409C275.958 100.926 275.529 100.711 275.22 100.913C274.308 101.53 274.241 101.691 274.657 102.348C274.067 102.576 273.49 102.804 272.886 103.019C272.752 102.388 273.476 101.838 272.886 101.275C273.008 101.069 273.183 100.899 273.393 100.783C273.603 100.668 273.84 100.61 274.08 100.617H274.778C275.153 100.644 275.449 100.47 275.395 99.9869ZM260.636 86.853C261.844 87.0274 263.051 87.1079 264.259 87.2018C264.479 87.2439 264.706 87.2304 264.919 87.1624C265.132 87.0945 265.325 86.9742 265.48 86.8127C265.614 86.6383 265.936 86.6115 266.177 86.5712C267.117 86.4237 268.069 86.2492 269.008 86.1553C269.507 86.0884 270.012 86.0884 270.511 86.1553C271.665 86.3297 272.819 86.5578 273.959 86.7725C274.148 86.7974 274.325 86.8766 274.469 87.0005C274 87.0005 273.503 87.0005 273.034 87.1079C272.728 87.1299 272.429 87.2025 272.148 87.3225C271.719 87.5372 271.316 87.7652 271.289 88.4092C271.296 88.723 271.192 89.0292 270.996 89.2743C270.799 89.5194 270.524 89.688 270.216 89.7507C269.584 89.979 268.97 90.2525 268.378 90.5691C268.069 90.7167 268.069 90.8911 268.378 91.0655C268.686 91.2399 269.25 91.535 269.72 91.8167C268.982 92.0985 268.982 92.0985 267.452 91.3874C267.667 91.7631 267.881 92.1119 268.11 92.4741C267.13 92.729 266.11 93.0242 265.091 93.2522C264.143 93.4141 263.257 93.8315 262.528 94.4596C261.786 94.9806 260.911 95.2785 260.006 95.3182C259.536 95.4121 259.147 95.4926 259.147 96.1232C259.147 96.3512 258.932 96.6196 258.745 96.8074C258.493 97.0414 258.213 97.2441 257.913 97.4111C257.67 97.5856 257.383 97.689 257.085 97.7098C256.786 97.7305 256.488 97.6677 256.223 97.5283C255.959 97.389 255.738 97.1788 255.586 96.9211C255.434 96.6634 255.357 96.3685 255.363 96.0695C255.324 95.7443 255.324 95.4154 255.363 95.0902C255.469 94.7016 255.622 94.3276 255.82 93.9767C255.926 93.8342 256.047 93.7037 256.182 93.5876C256.493 93.3326 256.73 92.9995 256.87 92.6226C257.009 92.2456 257.046 91.8384 256.976 91.4425C256.907 91.0466 256.733 90.6763 256.473 90.3696C256.213 90.0629 255.877 89.8308 255.498 89.6971C254.768 89.2611 253.954 88.9867 253.109 88.8921C252.822 88.8066 252.55 88.6752 252.304 88.5031C253.445 88.3153 254.545 88.1677 255.618 87.9665C256.076 87.8318 256.525 87.666 256.96 87.4701C258.106 86.949 259.369 86.7363 260.623 86.853H260.636ZM271.92 94.6609C271.919 94.7929 271.889 94.923 271.831 95.0415C271.773 95.16 271.689 95.2638 271.584 95.3451C271.157 95.606 270.708 95.8304 270.243 96.0159C270.033 96.1244 269.792 96.1557 269.561 96.1042C269.33 96.0527 269.125 95.9217 268.982 95.7341C268.834 95.5597 268.525 95.506 268.297 95.3987C268.293 95.3362 268.293 95.2734 268.297 95.2109C268.516 95.1057 268.74 95.0116 268.968 94.9292C269.706 94.728 270.417 94.5401 271.142 94.3657C271.37 94.2852 271.786 94.2852 271.88 94.6609H271.92ZM246.253 88.4628C246.589 88.3555 246.938 88.2884 247.3 88.1945C247.662 88.1006 248.118 88.0201 248.279 87.4969C248.33 87.3902 248.403 87.2955 248.493 87.2192C248.583 87.1428 248.689 87.0866 248.803 87.0542L249.312 86.9603C249.849 86.853 250.399 86.759 250.949 86.6785C251.402 86.66 251.851 86.597 252.291 86.4907C253.086 86.1859 253.937 86.0577 254.787 86.1151C255.05 86.1284 255.314 86.1284 255.578 86.1151H256.343C256.336 86.1775 256.336 86.2405 256.343 86.3029C255.43 87.0134 254.348 87.4755 253.203 87.6445C251.621 87.9065 250.112 88.5009 248.776 89.3885C248.346 89.6568 247.917 89.8715 247.595 89.2275C247.595 89.1068 247.3 89.0397 247.112 89.0129C246.696 88.9738 246.283 88.9021 245.878 88.7982C245.983 88.6704 246.104 88.5576 246.24 88.4628H246.253ZM243.57 89.9386C243.57 89.9386 243.49 89.9386 243.422 89.8581C243.825 89.1873 244.254 88.986 244.939 89.308C245.264 89.4727 245.619 89.5717 245.982 89.5994C246.346 89.627 246.712 89.5827 247.058 89.469C247.097 89.5013 247.133 89.5373 247.166 89.5763C247.058 89.7239 246.991 89.9386 246.857 89.9922C246.723 90.0459 246.173 90.1532 245.824 90.2739C245.746 90.3057 245.677 90.3549 245.621 90.4177C245.565 90.4805 245.525 90.5552 245.502 90.6362C245.502 90.7167 245.663 90.9179 245.784 90.9581L246.24 91.0789L249.836 92.0985C249.893 92.1343 249.943 92.1812 249.982 92.2365C250.021 92.2918 250.049 92.3543 250.064 92.4205C250.056 92.6016 250.029 92.7815 249.983 92.9571C249.769 93.9096 249.983 94.2987 251.016 94.2987C251.026 94.4655 250.973 94.63 250.869 94.761C250.766 94.892 250.617 94.9804 250.453 95.0097C249.809 95.1707 249.111 95.3853 248.548 95.5865C248.239 95.6805 247.931 95.7744 248.024 96.2037C248.016 96.3071 247.968 96.4032 247.89 96.472C247.621 96.6682 247.297 96.774 246.964 96.774C246.632 96.774 246.308 96.6682 246.039 96.472C245.926 96.3473 245.848 96.1946 245.815 96.0298C245.781 95.865 245.792 95.6942 245.847 95.5351C245.902 95.3761 245.998 95.2347 246.126 95.1257C246.254 95.0168 246.41 94.9443 246.575 94.9158C246.951 94.8218 247.354 94.795 247.743 94.6877C247.919 94.6498 248.073 94.5437 248.172 94.3925C248.172 94.2986 248.051 94.0706 247.931 93.9498C247.187 93.2497 246.254 92.7832 245.247 92.6083C244.952 92.6083 244.63 92.5278 244.321 92.5009C243.597 92.5009 242.859 92.3802 242.121 92.2997C241.812 92.2997 241.423 92.2997 241.396 91.8302C241.378 91.732 241.382 91.6309 241.408 91.5346C241.435 91.4383 241.483 91.3492 241.549 91.2742C241.615 91.1992 241.697 91.1402 241.789 91.1017C241.881 91.0632 241.981 91.0462 242.081 91.0521C242.571 91.0368 243.06 90.9875 243.543 90.9045C243.758 90.9045 244.066 90.7167 244.093 90.5691C244.107 90.1666 243.892 89.9117 243.516 89.9117L243.57 89.9386ZM249.943 104.186C250.131 104.401 250.466 104.736 250.413 104.91C250.368 105.095 250.254 105.255 250.094 105.358C249.934 105.46 249.74 105.497 249.554 105.46C248.9 105.375 248.241 105.326 247.582 105.313C248.147 104.49 248.953 103.861 249.889 103.515L249.42 103.931C249.59 103.989 249.748 104.075 249.889 104.186H249.943ZM251.754 150.108C251.225 150.451 250.739 150.857 250.305 151.315C250.055 151.725 249.891 152.182 249.822 152.657C249.632 153.514 249.395 154.361 249.111 155.192C248.91 155.662 248.333 155.97 247.971 156.4C247.697 156.766 247.297 157.018 246.849 157.107C246.401 157.196 245.935 157.116 245.542 156.883C245.341 157.46 245.73 157.835 245.972 158.224C246.32 158.855 246.32 158.855 245.717 159.271C245.184 159.691 244.674 160.139 244.187 160.612C244.005 160.779 243.873 160.992 243.804 161.228C243.736 161.465 243.734 161.716 243.798 161.954C243.797 162.407 243.738 162.857 243.624 163.295C243.56 163.518 243.529 163.748 243.53 163.98C243.53 164.422 243.718 164.852 243.771 165.321C243.865 166.059 243.919 166.824 243.986 167.575C243.986 167.857 244.093 168.031 244.429 168.058C244.512 168.078 244.59 168.116 244.657 168.169C244.724 168.223 244.779 168.29 244.818 168.366C245.019 168.796 245.193 169.225 245.368 169.708C245.253 169.799 245.121 169.866 244.979 169.905C244.837 169.944 244.689 169.953 244.544 169.933C244.398 169.913 244.259 169.864 244.133 169.788C244.007 169.713 243.898 169.612 243.812 169.493C243.538 168.98 243.091 168.581 242.55 168.366C241.668 167.985 240.956 167.293 240.551 166.421C239.958 165.564 239.657 164.538 239.693 163.497C239.778 163.14 239.729 162.764 239.556 162.44C239.383 162.116 239.098 161.867 238.753 161.739C238.606 161.739 238.512 161.417 238.485 161.229C238.405 160.505 238.364 159.754 238.297 159.029C238.15 157.46 237.962 155.903 237.868 154.347C237.868 153.18 237.868 151.999 237.868 150.832C237.868 150.296 237.868 149.772 237.868 149.263C237.813 148.582 237.555 147.934 237.127 147.403C236.698 146.872 236.12 146.482 235.466 146.284C235.113 146.22 234.796 146.029 234.574 145.747C234.352 145.466 234.24 145.113 234.259 144.755C234.27 144.436 234.189 144.12 234.025 143.846C233.86 143.572 233.62 143.352 233.333 143.212C232.553 142.781 231.963 142.072 231.683 141.227C231.577 140.972 231.416 140.743 231.213 140.556C231.005 140.358 230.852 140.109 230.77 139.833C230.687 139.558 230.678 139.266 230.743 138.986C230.763 138.6 230.736 138.212 230.663 137.832C230.608 137.577 230.586 137.315 230.596 137.054C230.702 136.301 230.977 135.581 231.401 134.948C231.862 134.269 232.245 133.54 232.541 132.775C232.709 132.362 232.733 131.904 232.609 131.476C232.484 131.047 232.22 130.673 231.857 130.414C231.734 130.361 231.602 130.334 231.468 130.334C231.334 130.334 231.202 130.361 231.079 130.414C230.837 130.575 230.549 130.652 230.258 130.636C229.968 130.619 229.691 130.508 229.469 130.32C228.506 129.712 227.715 128.867 227.175 127.865C227.081 127.723 226.944 127.615 226.786 127.556C226.55 127.463 226.301 127.409 226.048 127.395C225.37 127.346 224.739 127.033 224.29 126.523C224.022 126.24 223.693 126.023 223.328 125.888C222.962 125.753 222.571 125.704 222.184 125.745C222.078 125.772 221.967 125.772 221.862 125.745C220.296 125.341 218.871 124.515 217.743 123.357C217.576 123.133 217.458 122.876 217.398 122.603C217.338 122.33 217.336 122.047 217.394 121.774C217.797 118.635 218.507 115.544 219.514 112.544C221.031 107.925 223.219 103.554 226.007 99.571C227.04 98.0819 228.235 96.6732 229.362 95.2377C229.523 95.0231 229.697 94.9158 229.938 95.0902C230.106 95.1917 230.292 95.2583 230.486 95.286C230.679 95.3136 230.877 95.3018 231.066 95.2512C231.991 95.1438 232.93 95.1841 233.829 94.9963C234.914 94.7653 235.974 94.4329 236.996 94.0035C237.375 93.7887 237.699 93.4892 237.943 93.1286C238.188 92.7679 238.346 92.3557 238.405 91.9241C238.467 91.6826 238.548 91.4411 238.646 91.1996C238.914 90.3142 238.914 90.3142 239.813 90.5154C240.457 90.6764 241.155 90.824 241.692 90.9447C241.168 91.1325 240.618 91.3069 240.095 91.5216C239.572 91.7363 239.733 91.857 239.961 92.1119C240.189 92.3668 240.672 93.0107 241.048 93.4535C241.168 93.5608 241.437 93.6547 241.531 93.601C242.288 93.2997 243.108 93.1892 243.919 93.279C243.71 93.6362 243.463 93.9691 243.181 94.2718C242.891 94.4953 242.55 94.6429 242.188 94.7011C241.262 94.8889 240.31 95.0097 239.371 95.1573C239.316 95.4722 239.151 95.7575 238.905 95.9616C238.659 96.1658 238.348 96.2754 238.029 96.2708C236.813 96.4727 235.674 96.9961 234.728 97.7867C234.391 97.9697 234.134 98.2717 234.008 98.6339C233.881 98.996 233.894 99.3923 234.044 99.7454C234.138 100.041 234.232 100.43 234.715 100.175C234.782 100.175 234.943 100.175 235.05 100.269C235.506 100.51 235.936 100.765 236.392 100.993C236.848 101.221 237.143 101.463 237.64 101.288C237.747 101.288 237.895 101.288 237.895 101.288C237.774 102.039 237.653 102.71 237.519 103.462C237.782 103.476 238.043 103.421 238.279 103.304C238.514 103.186 238.714 103.009 238.861 102.791C239.733 101.449 240.659 100.295 241.544 99.0612C241.687 98.8876 241.817 98.7038 241.933 98.5112C242.179 98.0368 242.577 97.6587 243.064 97.4373C243.55 97.216 244.097 97.1642 244.617 97.2903C245.234 97.3842 245.65 97.5184 245.596 98.2563C245.596 98.3636 245.891 98.5514 246.052 98.5782C246.873 98.6392 247.692 98.4472 248.4 98.0282C248.444 98.1407 248.475 98.2577 248.494 98.377C248.514 98.5374 248.514 98.6996 248.494 98.86C248.333 99.4669 248.398 100.112 248.677 100.675C248.955 101.237 249.429 101.679 250.01 101.919L250.252 102.039C249.36 102.889 248.194 103.394 246.964 103.462C246.112 103.457 245.274 103.679 244.536 104.105C243.919 104.393 243.283 104.635 242.631 104.83C242.401 104.968 242.193 105.14 242.014 105.34L242.094 105.501L244.523 105.286C244.429 105.876 244.523 106.225 245.153 106.279C245.381 106.279 245.583 106.628 245.878 106.869C244.845 107.07 244.308 108.211 242.98 107.942L244.026 106.976C243.543 106.426 243.409 106.373 242.765 106.789C242.121 107.205 241.544 107.687 240.927 108.13C240.766 108.251 240.618 108.439 240.444 108.466C239.371 108.667 238.847 109.552 238.15 110.25L238.002 110.397C237.866 110.579 237.693 110.729 237.494 110.838C237.295 110.947 237.074 111.012 236.848 111.028C236.636 111.027 236.431 111.103 236.271 111.243C236.082 111.409 235.958 111.637 235.922 111.887C235.963 112.338 235.864 112.792 235.638 113.185C235.413 113.579 235.072 113.893 234.661 114.087C233.917 114.471 233.207 114.92 232.541 115.428C232.258 115.719 232.068 116.087 231.994 116.485C231.92 116.884 231.966 117.296 232.125 117.669C232.251 117.928 232.317 118.212 232.317 118.5C232.317 118.789 232.251 119.073 232.125 119.332C232.125 119.466 231.763 119.574 231.562 119.574C231.361 119.574 231.226 119.386 231.186 119.238C231.025 118.568 230.904 117.897 230.743 117.199C230.651 116.972 230.534 116.756 230.395 116.555H230.26C230.26 116.81 230.26 117.065 230.26 117.32C230.226 117.367 230.18 117.404 230.126 117.427C229.938 117.226 229.777 117.025 229.59 116.85C229.334 116.611 229.05 116.403 228.744 116.233C228.587 116.158 228.407 116.146 228.242 116.202C228.077 116.257 227.939 116.374 227.859 116.528C227.523 116.958 227.148 117.36 226.812 117.749C226.537 117.41 226.241 117.087 225.927 116.783C225.861 116.728 225.783 116.688 225.699 116.667C225.616 116.646 225.528 116.644 225.444 116.663C224.791 116.764 224.198 117.104 223.78 117.615C223.345 118.144 222.86 118.629 222.331 119.064C222.096 119.232 221.93 119.48 221.866 119.762C221.802 120.044 221.843 120.34 221.982 120.593C222.044 120.822 222.044 121.062 221.982 121.291C221.862 121.919 221.983 122.569 222.321 123.111C222.659 123.653 223.19 124.048 223.807 124.216C224.134 124.327 224.489 124.32 224.811 124.195C225.132 124.069 225.399 123.834 225.565 123.531C225.699 123.236 225.793 122.928 225.927 122.633C225.953 122.544 225.998 122.462 226.058 122.393C226.119 122.323 226.194 122.267 226.278 122.229C226.362 122.191 226.453 122.171 226.545 122.172C226.637 122.172 226.728 122.192 226.812 122.23C226.917 122.336 226.996 122.466 227.043 122.608C227.089 122.75 227.102 122.901 227.081 123.048C226.965 123.555 226.812 124.053 226.625 124.538C226.45 125.101 226.625 125.342 227.148 125.477C227.671 125.611 228.006 125.611 228.489 125.664C228.607 125.657 228.724 125.677 228.833 125.723C228.941 125.77 229.037 125.841 229.112 125.931C229.188 126.021 229.242 126.127 229.269 126.242C229.295 126.356 229.295 126.476 229.268 126.59C229.207 127.224 229.207 127.862 229.268 128.495C229.369 128.863 229.569 129.197 229.845 129.461C229.945 129.524 230.061 129.558 230.18 129.558C230.299 129.558 230.415 129.524 230.515 129.461C230.712 129.332 230.937 129.253 231.171 129.232C231.405 129.211 231.641 129.248 231.857 129.34C232.018 129.407 232.206 129.448 232.367 129.501C233.145 129.689 233.346 129.501 233.883 128.978C234.225 128.647 234.619 128.375 235.05 128.173C235.117 128.153 235.187 128.153 235.254 128.172C235.32 128.191 235.38 128.229 235.426 128.281C235.459 128.335 235.477 128.398 235.477 128.462C235.477 128.525 235.459 128.588 235.426 128.643C234.997 129.018 235.225 129.206 235.6 129.367L236.513 129.756C235.922 128.804 236.701 128.482 237.049 127.905C237.184 128.012 237.331 128.079 237.452 128.187C237.699 128.463 238.007 128.678 238.352 128.815C238.696 128.953 239.068 129.008 239.438 128.978H239.545C240.547 128.989 241.507 129.383 242.228 130.078C243.239 130.952 244.452 131.561 245.757 131.849C246.038 131.897 246.304 132.008 246.536 132.173C246.768 132.338 246.96 132.553 247.099 132.802C247.34 133.204 247.649 133.566 247.89 133.955C248.279 134.572 248.159 135.002 247.515 135.297L246.897 135.605C247.058 135.914 247.26 136.008 247.555 135.834C247.774 135.709 248.008 135.614 248.253 135.552C248.427 135.552 248.615 135.699 248.762 135.82C248.91 135.941 248.682 136.035 248.642 136.155C248.601 136.276 248.561 136.451 248.642 136.464C248.753 136.536 248.885 136.569 249.017 136.558C249.126 136.545 249.227 136.493 249.299 136.41C249.406 136.29 249.537 136.194 249.684 136.128C249.831 136.062 249.99 136.028 250.151 136.028C250.312 136.028 250.471 136.062 250.618 136.128C250.765 136.194 250.896 136.29 251.003 136.41C251.07 136.477 251.204 136.518 251.204 136.571C251.285 137.47 251.888 137.108 252.278 136.96C252.466 136.888 252.667 136.857 252.868 136.868C253.07 136.88 253.266 136.934 253.445 137.027C254.371 137.43 255.35 137.752 256.329 138.101C256.473 138.138 256.6 138.222 256.692 138.338C256.784 138.454 256.835 138.597 256.839 138.745C256.942 139.502 256.875 140.274 256.643 141.002C256.411 141.731 256.02 142.399 255.498 142.957C255.422 143.059 255.32 143.137 255.202 143.185C254.773 143.373 254.746 143.722 254.733 144.111C254.738 145.11 254.688 146.109 254.585 147.103C254.458 147.715 254.246 148.307 253.955 148.86C253.74 149.316 253.525 149.786 252.801 149.665C252.573 149.664 252.35 149.74 252.17 149.88C251.996 149.92 251.862 150.027 251.754 150.108ZM305.771 146.083C305.368 147.076 305.127 148.149 304.791 149.169C304.682 149.473 304.533 149.761 304.348 150.027C303.852 150.98 303.852 150.98 302.819 150.792C302.423 150.657 302.096 150.372 301.91 149.997C301.724 149.623 301.694 149.19 301.826 148.793C302.099 148.459 302.324 148.088 302.497 147.693C302.597 147.251 302.597 146.793 302.497 146.351C302.48 146.045 302.558 145.741 302.722 145.481C302.885 145.221 303.125 145.019 303.409 144.902C303.56 144.884 303.701 144.819 303.812 144.715C304.322 144.205 304.845 143.668 305.328 143.132C305.441 142.963 305.535 142.783 305.61 142.595C306.072 143.704 306.119 144.942 305.744 146.083H305.771ZM315.552 119.547C315.404 119.358 315.21 119.21 314.99 119.117C314.769 119.023 314.529 118.986 314.29 119.01C312.631 119.108 310.97 118.847 309.42 118.246C308.307 117.962 307.243 117.509 306.267 116.904C305.469 116.483 304.608 116.193 303.718 116.045C303.768 116.184 303.8 116.328 303.812 116.475C303.611 117.709 304.536 118.286 305.247 118.997C305.556 119.292 305.851 119.601 306.187 119.963L308.32 119.386C308.57 119.306 308.839 119.314 309.084 119.409C309.328 119.504 309.532 119.681 309.662 119.909C310.031 120.351 310.43 120.768 310.856 121.157C311.231 121.573 311.137 121.68 310.708 122.002C309.539 122.656 308.484 123.494 307.582 124.484C307.479 124.631 307.347 124.754 307.193 124.846C306.509 125.289 305.851 125.705 305.14 126.188C304.905 126.321 304.643 126.403 304.373 126.426C304.103 126.449 303.831 126.413 303.576 126.322C303.321 126.23 303.089 126.084 302.896 125.894C302.703 125.704 302.553 125.475 302.457 125.222C302.156 124.232 301.648 123.318 300.967 122.539C300.632 122.045 300.366 121.508 300.176 120.942C299.896 120.354 299.422 119.88 298.834 119.601C298.564 119.501 298.32 119.34 298.122 119.131C297.924 118.921 297.778 118.669 297.694 118.393C297.425 117.628 297.036 116.877 296.714 116.112C295.95 116.434 295.95 116.434 296.164 117.186C296.539 118.483 297.105 119.717 297.841 120.848C299.128 122.596 300.209 124.487 301.061 126.483C301.249 127.019 301.383 127.596 301.598 128.12C301.92 128.911 302.282 129.005 303.02 128.576C303.096 128.521 303.183 128.484 303.275 128.468H306.173C306.062 129.246 305.905 130.017 305.704 130.776C305.534 131.418 305.222 132.014 304.791 132.52C304.122 133.09 303.409 133.605 302.658 134.063C302.468 134.183 302.311 134.349 302.202 134.546C301.37 136.075 300.578 137.604 299.76 139.12C299.545 139.509 299.478 139.818 299.76 140.14C300.9 141.361 300.565 142.823 300.578 144.312C300.578 144.473 300.323 144.674 300.136 144.782C299.209 145.192 298.381 145.796 297.707 146.553C297.442 146.881 297.258 147.267 297.17 147.68C297.012 148.911 296.616 150.101 296.003 151.181C295.077 152.751 294.259 154.401 293.414 156.011C293.346 156.188 293.229 156.343 293.077 156.457C292.925 156.571 292.744 156.639 292.555 156.655L290.073 156.802C289.711 156.802 289.362 156.91 289 156.936C288.834 156.949 288.669 156.907 288.53 156.816C288.235 156.588 287.98 156.306 287.752 156.105C287.766 155.276 287.552 154.459 287.135 153.743C286.976 153.484 286.796 153.237 286.598 153.006C286.049 152.218 285.754 151.282 285.753 150.322C285.707 149.793 285.547 149.281 285.283 148.82C284.666 147.882 284.28 146.81 284.156 145.694C284.16 145.066 284.273 144.444 284.492 143.856C284.571 143.603 284.679 143.36 284.814 143.132C285.066 142.628 285.114 142.047 284.948 141.508C284.551 139.652 283.764 137.9 282.64 136.37C282.522 136.166 282.46 135.935 282.46 135.699C282.46 135.464 282.522 135.233 282.64 135.029C282.814 134.674 283.007 134.329 283.217 133.996C283.418 133.7 283.405 133.459 283.043 133.325C282.867 133.274 282.709 133.175 282.586 133.041C282.463 132.906 282.38 132.739 282.345 132.56C282.345 132.453 282.036 132.292 281.889 132.305C281.529 132.344 281.166 132.301 280.827 132.177C280.487 132.054 280.18 131.855 279.93 131.594C279.675 131.339 279.111 131.339 278.669 131.312C278.348 131.33 278.032 131.393 277.729 131.5L273.315 132.56C272.96 132.641 272.59 132.625 272.243 132.514C271.896 132.403 271.585 132.201 271.343 131.93C271.213 131.786 271.069 131.655 270.914 131.54C270.596 131.351 270.331 131.085 270.143 130.766C269.955 130.447 269.851 130.086 269.84 129.716C269.813 129.555 269.748 129.402 269.65 129.272C269.552 129.141 269.424 129.036 269.277 128.965C267.935 128.535 267.747 127.328 267.385 126.282C267.362 126.118 267.373 125.952 267.416 125.792C267.46 125.633 267.536 125.485 267.64 125.356C267.809 125.205 267.925 125.003 267.971 124.781C268.017 124.559 267.99 124.328 267.895 124.122C267.65 123.574 267.548 122.973 267.597 122.375C267.647 121.777 267.846 121.201 268.177 120.701C268.514 119.959 269.036 119.317 269.693 118.836C269.948 118.661 270.015 118.219 270.256 118.018C270.995 117.333 271.517 116.447 271.759 115.469C271.967 115.07 272.26 114.722 272.618 114.449C273.154 113.939 273.731 113.47 274.268 112.96C274.563 112.691 274.764 112.665 274.979 113.04C275.029 113.113 275.095 113.174 275.171 113.218C275.248 113.262 275.334 113.289 275.422 113.295L277.864 112.973C278.101 112.905 278.343 112.855 278.588 112.826C279.766 112.852 280.934 112.599 281.996 112.088C282.242 111.995 282.514 111.995 282.761 112.088C282.841 112.088 282.841 112.45 282.828 112.651C282.834 112.929 282.903 113.202 283.031 113.448C283.159 113.695 283.342 113.909 283.566 114.073L284.76 115.227C284.84 115.294 284.934 115.401 285.028 115.415C285.833 115.549 286.652 115.697 287.483 115.764C287.886 115.764 288.154 115.616 288.288 115.12C288.423 114.623 288.839 114.462 289.12 114.14C289.115 114.198 289.115 114.257 289.12 114.315C289.289 114.493 289.478 114.651 289.684 114.784C290.108 115.025 290.558 115.219 291.026 115.361C291.377 115.415 291.734 115.415 292.085 115.361C292.286 115.341 292.488 115.341 292.689 115.361C293.548 115.482 294.393 115.589 295.252 115.764C295.389 115.795 295.533 115.789 295.667 115.747C295.802 115.704 295.922 115.627 296.017 115.522C296.39 115.33 296.684 115.012 296.846 114.624C297.008 114.236 297.028 113.804 296.902 113.403C296.819 113.04 296.761 112.673 296.728 112.302C296.46 112.201 296.173 112.161 295.887 112.184C295.602 112.207 295.325 112.293 295.077 112.437C294.781 112.632 294.428 112.72 294.074 112.689C293.721 112.657 293.389 112.507 293.132 112.262C292.28 111.738 291.653 110.916 291.374 109.955C292.206 110.371 292.542 109.861 292.931 109.123C291.898 109.364 290.972 109.552 290.06 109.807C289.968 109.828 289.883 109.871 289.812 109.932C289.741 109.993 289.686 110.071 289.652 110.158C289.617 110.245 289.605 110.339 289.615 110.433C289.625 110.526 289.658 110.615 289.711 110.693C289.779 110.796 289.811 110.918 289.805 111.041C289.769 111.25 289.705 111.453 289.617 111.645C289.362 111.538 288.986 111.498 288.879 111.283C288.771 111.068 288.624 110.599 288.195 110.465C288.163 110.45 288.135 110.427 288.114 110.399C288.093 110.371 288.079 110.338 288.074 110.304C288.154 109.431 287.39 108.962 287.027 108.372C286.949 108.291 286.855 108.227 286.751 108.183C286.647 108.14 286.536 108.117 286.424 108.117C286.142 108.12 285.865 108.054 285.614 107.925C285.364 107.797 285.149 107.609 284.988 107.379C284.859 107.181 284.696 107.008 284.505 106.869C284.223 106.654 283.874 106.507 283.606 106.869C283.532 106.932 283.473 107.01 283.433 107.098C283.392 107.186 283.371 107.282 283.371 107.379C283.371 107.476 283.392 107.572 283.433 107.66C283.473 107.748 283.532 107.826 283.606 107.889C284.102 108.477 284.733 108.937 285.444 109.23C285.665 109.328 285.863 109.471 286.027 109.648C286.191 109.826 286.317 110.035 286.397 110.263C286.22 110.406 286.012 110.505 285.791 110.553C285.569 110.602 285.339 110.598 285.119 110.542C284.899 110.486 284.695 110.379 284.523 110.231C284.351 110.082 284.217 109.896 284.129 109.686C283.955 109.431 283.758 109.193 283.539 108.975C283.2 108.528 282.828 108.106 282.425 107.714C281.875 107.218 280.802 107.178 280.681 108.13C280.663 108.231 280.637 108.33 280.601 108.425L280.238 108.318C279.929 108.199 279.586 108.199 279.276 108.318C278.966 108.437 278.712 108.666 278.561 108.962C278.427 109.163 278.226 109.338 278.078 109.525C277.926 109.67 277.803 109.843 277.716 110.035C277.625 110.423 277.425 110.777 277.14 111.055C276.855 111.333 276.496 111.524 276.106 111.605C275.087 111.778 274.054 111.863 273.02 111.86C272.913 111.831 272.815 111.775 272.735 111.697C272.655 111.62 272.596 111.523 272.564 111.417C272.477 110.704 272.477 109.983 272.564 109.271C272.641 108.912 272.845 108.594 273.138 108.374C273.432 108.155 273.795 108.049 274.161 108.077H276.334C276.602 108.077 276.777 107.996 276.75 107.661C276.737 107.536 276.737 107.41 276.75 107.285C276.898 106.426 276.857 106.332 276.079 105.876C275.851 105.742 275.596 105.648 275.368 105.514C275.14 105.38 275.113 105.313 275.127 105.219C275.141 105.152 275.171 105.09 275.216 105.038C275.26 104.987 275.317 104.947 275.381 104.924C275.652 104.841 275.931 104.792 276.213 104.776C276.777 104.789 277.332 104.636 277.81 104.335C278.287 104.035 278.665 103.6 278.897 103.086C279.007 102.789 279.199 102.529 279.451 102.337C279.702 102.145 280.003 102.028 280.319 101.999C281.352 101.838 281.54 101.57 281.661 100.51C281.727 100.237 281.821 99.9719 281.942 99.7186H282.157C282.336 100.077 282.484 100.449 282.6 100.832C282.629 101.03 282.719 101.213 282.859 101.355C282.999 101.497 283.181 101.591 283.378 101.624C283.771 101.657 284.166 101.657 284.559 101.624C285.243 101.53 285.9 101.396 286.585 101.302C286.826 101.302 286.974 101.302 287.054 100.939C287.135 100.577 287.457 100.456 287.685 100.228C287.913 100 288.221 99.893 288.235 99.4637C288.305 99.2283 288.448 99.0212 288.644 98.8718C288.839 98.7225 289.076 98.6385 289.322 98.6319C289.54 98.6806 289.732 98.81 289.858 98.9941C289.99 99.2459 290.093 99.5113 290.167 99.7856C290.519 99.4679 290.778 99.0601 290.915 98.6061C291.052 98.1521 291.062 97.6693 290.945 97.2098C290.673 97.2909 290.395 97.3493 290.113 97.3843C289.721 97.4381 289.324 97.4381 288.933 97.3843C287.805 97.1428 287.591 96.6196 288.235 95.6805C288.45 95.3451 288.691 94.6743 288.584 94.6072C288.154 94.2852 287.765 94.6877 287.47 94.956C286.738 95.547 286.205 96.3474 285.941 97.2501C285.734 98.0457 285.408 98.8055 284.975 99.5039C284.8 99.7991 284.237 99.9198 283.834 99.9735C283.687 99.9735 283.445 99.6515 283.284 99.4368C283.13 99.2047 282.991 98.9627 282.868 98.7124C282.862 98.7704 282.862 98.8288 282.868 98.8868L280.48 99.0075C280.44 98.8985 280.408 98.7863 280.386 98.6721C280.037 96.9549 279.876 97.183 281.54 96.5256C282.048 96.2453 282.502 95.8774 282.881 95.439L284.008 94.473C284.085 94.4164 284.153 94.3486 284.21 94.2718C285.337 92.7693 287.014 92.5278 288.704 92.2595C290.22 92.2031 291.73 92.4731 293.132 93.051L295.547 93.762C294.447 94.6474 293.454 93.762 292.515 93.923C292.515 93.923 292.448 94.0303 292.515 94.0438C293.05 94.6309 293.624 95.1821 294.232 95.6939C294.345 95.7498 294.469 95.7793 294.595 95.7802C294.721 95.7811 294.846 95.7533 294.959 95.6991C295.073 95.6448 295.173 95.5654 295.252 95.4669C295.33 95.3684 295.385 95.2533 295.413 95.1304C295.507 94.795 295.654 94.634 296.017 94.634C296.243 94.6292 296.463 94.558 296.649 94.4292C296.835 94.3003 296.979 94.1197 297.063 93.9096C297.251 93.5474 297.492 93.3864 297.882 93.5339C297.882 93.9498 298.016 94.1377 298.432 94.0035C298.589 93.9539 298.738 93.8816 298.874 93.7888C299.356 93.4929 299.922 93.3655 300.484 93.4266C301.274 93.385 302.052 93.2221 302.792 92.9437C303.503 92.7558 303.879 92.8229 304.241 93.2254C307.571 96.6755 310.399 100.578 312.64 104.817C315.327 109.841 317.142 115.284 318.007 120.915C318.014 120.973 318.014 121.032 318.007 121.09C316.759 121.17 316.155 120.245 315.525 119.547H315.552Z" fill="#8CC5F9"/>
<path d="M318.02 120.902C316.746 121.17 316.182 120.245 315.511 119.56C315.369 119.366 315.176 119.213 314.954 119.119C314.733 119.024 314.489 118.992 314.25 119.024C311.423 119.028 308.645 118.283 306.2 116.864C305.409 116.429 304.545 116.143 303.651 116.019C303.702 116.148 303.733 116.283 303.745 116.421C303.543 117.669 304.456 118.246 305.18 118.957C305.489 119.252 305.771 119.56 306.12 119.923L308.253 119.346C308.501 119.264 308.77 119.27 309.014 119.363C309.258 119.456 309.463 119.63 309.594 119.856C309.96 120.302 310.354 120.723 310.775 121.117C311.164 121.532 311.07 121.653 310.628 121.962C309.465 122.619 308.415 123.457 307.515 124.444C307.409 124.584 307.277 124.703 307.126 124.792C306.442 125.249 305.784 125.678 305.073 126.134C304.839 126.27 304.578 126.354 304.308 126.379C304.038 126.405 303.766 126.371 303.51 126.28C303.255 126.189 303.022 126.044 302.829 125.854C302.635 125.665 302.485 125.435 302.39 125.182C302.089 124.192 301.581 123.277 300.9 122.498C300.565 122.009 300.299 121.477 300.109 120.915C299.853 120.295 299.375 119.792 298.767 119.507C298.5 119.406 298.258 119.246 298.061 119.04C297.863 118.833 297.715 118.585 297.627 118.313C297.358 117.521 296.983 116.783 296.647 116.019C295.882 116.341 295.882 116.341 296.084 117.092C296.472 118.386 297.042 119.619 297.774 120.754C299.061 122.502 300.142 124.393 300.994 126.389C301.182 126.926 301.316 127.502 301.531 128.026C301.866 128.817 302.215 128.911 302.953 128.482C303.022 128.424 303.106 128.387 303.195 128.374H306.106C305.945 129.166 305.865 129.957 305.637 130.695C305.467 131.334 305.155 131.925 304.724 132.426C304.052 132.991 303.339 133.507 302.591 133.969C302.402 134.095 302.242 134.259 302.121 134.452C301.303 135.968 300.525 137.511 299.693 139.026C299.478 139.416 299.411 139.724 299.693 140.046C300.82 141.267 300.498 142.729 300.511 144.218C300.511 144.366 300.256 144.581 300.069 144.688C299.146 145.105 298.319 145.708 297.64 146.459C297.375 146.787 297.191 147.173 297.103 147.586C296.955 148.822 296.553 150.014 295.923 151.087C295.01 152.67 294.192 154.307 293.36 155.917C293.289 156.094 293.169 156.249 293.015 156.362C292.861 156.476 292.679 156.545 292.488 156.561C291.656 156.561 290.838 156.641 290.006 156.708C289.644 156.708 289.295 156.816 288.933 156.842C288.771 156.859 288.609 156.816 288.476 156.722C288.168 156.494 287.913 156.212 287.685 156.011C287.689 155.185 287.481 154.372 287.081 153.65C286.907 153.395 286.732 153.14 286.531 152.898C285.993 152.136 285.699 151.229 285.686 150.296C285.644 149.762 285.484 149.244 285.216 148.78C284.598 147.841 284.208 146.77 284.076 145.654C284.087 145.029 284.21 144.411 284.438 143.829C284.506 143.564 284.615 143.311 284.76 143.078C284.997 142.574 285.035 141.999 284.867 141.468C284.474 139.612 283.692 137.861 282.573 136.33C282.455 136.126 282.393 135.895 282.393 135.659C282.393 135.424 282.455 135.192 282.573 134.988C282.749 134.632 282.946 134.287 283.163 133.955C283.365 133.647 283.351 133.419 282.975 133.285C282.8 133.238 282.643 133.141 282.524 133.004C282.404 132.868 282.328 132.7 282.305 132.52C282.252 132.443 282.182 132.381 282.1 132.336C282.019 132.292 281.928 132.268 281.835 132.265C281.478 132.302 281.117 132.257 280.78 132.134C280.443 132.011 280.138 131.813 279.89 131.554C279.507 131.336 279.067 131.238 278.628 131.272C278.303 131.288 277.982 131.351 277.676 131.46L273.262 132.52C272.908 132.596 272.54 132.58 272.194 132.472C271.848 132.364 271.537 132.167 271.289 131.903C271.16 131.755 271.016 131.62 270.86 131.5C270.542 131.308 270.277 131.039 270.09 130.718C269.902 130.397 269.798 130.034 269.787 129.662C269.757 129.504 269.69 129.355 269.592 129.227C269.495 129.098 269.368 128.995 269.223 128.924C267.881 128.495 267.707 127.288 267.345 126.241C267.316 126.081 267.322 125.916 267.364 125.758C267.406 125.601 267.482 125.454 267.586 125.329C267.755 125.177 267.87 124.975 267.913 124.752C267.957 124.53 267.927 124.299 267.828 124.095C267.592 123.544 267.496 122.944 267.548 122.347C267.599 121.751 267.797 121.176 268.123 120.674C268.461 119.933 268.983 119.291 269.639 118.809C269.894 118.635 269.961 118.192 270.203 117.991C270.941 117.306 271.464 116.42 271.705 115.442C271.913 115.043 272.206 114.695 272.564 114.422C273.101 113.912 273.678 113.443 274.214 112.933C274.509 112.665 274.711 112.624 274.939 113.014C274.983 113.088 275.046 113.151 275.121 113.195C275.196 113.24 275.281 113.265 275.368 113.268C276.173 113.175 276.991 113.054 277.81 112.933C278.052 112.869 278.299 112.824 278.548 112.799C279.721 112.817 280.883 112.565 281.942 112.061C282.184 111.968 282.452 111.968 282.694 112.061C282.788 112.061 282.788 112.437 282.774 112.624C282.777 112.903 282.845 113.177 282.973 113.424C283.101 113.671 283.286 113.884 283.512 114.047C283.901 114.436 284.317 114.811 284.72 115.187C284.787 115.267 284.867 115.375 284.961 115.388C285.78 115.522 286.598 115.67 287.416 115.737C287.832 115.737 288.101 115.589 288.248 115.093C288.396 114.597 288.772 114.436 289.053 114.114L289.134 114.288C289.307 114.467 289.501 114.624 289.711 114.758C290.136 114.998 290.585 115.192 291.052 115.334C291.404 115.381 291.761 115.381 292.112 115.334C292.313 115.314 292.515 115.314 292.716 115.334C293.561 115.455 294.433 115.563 295.279 115.737C295.416 115.767 295.559 115.761 295.693 115.718C295.827 115.676 295.948 115.599 296.043 115.495C296.417 115.303 296.711 114.985 296.873 114.597C297.035 114.209 297.055 113.777 296.929 113.376C296.853 113.017 296.799 112.654 296.768 112.289C296.499 112.186 296.21 112.143 295.923 112.164C295.635 112.184 295.356 112.269 295.104 112.41C294.807 112.602 294.454 112.69 294.101 112.658C293.749 112.627 293.417 112.478 293.159 112.235C292.306 111.711 291.68 110.889 291.401 109.928C292.22 110.344 292.568 109.834 292.958 109.096C291.924 109.338 290.999 109.525 290.086 109.794C289.995 109.813 289.91 109.854 289.839 109.914C289.768 109.973 289.712 110.05 289.678 110.136C289.643 110.223 289.631 110.316 289.641 110.408C289.652 110.501 289.685 110.589 289.738 110.666C289.801 110.776 289.834 110.901 289.831 111.028C289.786 111.228 289.727 111.425 289.657 111.618C289.389 111.511 289.013 111.457 288.906 111.269C288.798 111.082 288.637 110.572 288.235 110.438C288.201 110.424 288.171 110.402 288.148 110.374C288.125 110.346 288.109 110.312 288.101 110.277C288.181 109.405 287.416 108.935 287.054 108.345C286.974 108.184 286.665 108.103 286.45 108.09C286.17 108.088 285.894 108.021 285.644 107.893C285.395 107.764 285.179 107.579 285.015 107.352C284.882 107.157 284.719 106.985 284.532 106.842C284.25 106.614 283.901 106.467 283.619 106.842C283.546 106.904 283.487 106.981 283.447 107.068C283.406 107.155 283.385 107.25 283.385 107.345C283.385 107.441 283.406 107.536 283.447 107.623C283.487 107.71 283.546 107.787 283.619 107.849C284.115 108.437 284.746 108.897 285.458 109.19C285.677 109.29 285.875 109.433 286.038 109.61C286.202 109.788 286.328 109.996 286.41 110.223C286.233 110.365 286.026 110.465 285.804 110.513C285.582 110.561 285.352 110.557 285.132 110.501C284.912 110.445 284.708 110.339 284.537 110.191C284.365 110.042 284.23 109.856 284.143 109.646C283.969 109.394 283.776 109.157 283.566 108.935C283.215 108.489 282.839 108.063 282.439 107.661C281.889 107.178 280.815 107.137 280.695 108.09C280.683 108.192 280.656 108.292 280.614 108.385L280.252 108.278C279.944 108.158 279.602 108.156 279.293 108.272C278.983 108.388 278.727 108.615 278.575 108.908C278.441 109.123 278.239 109.284 278.092 109.485C277.935 109.634 277.807 109.812 277.716 110.008C277.628 110.391 277.432 110.739 277.152 111.013C276.871 111.287 276.517 111.473 276.133 111.551C275.106 111.735 274.064 111.825 273.02 111.82C272.914 111.787 272.817 111.728 272.74 111.649C272.662 111.569 272.607 111.471 272.577 111.363C272.496 110.655 272.496 109.939 272.577 109.23C272.646 108.873 272.844 108.553 273.133 108.333C273.423 108.112 273.784 108.007 274.147 108.036C274.872 108.036 275.596 108.036 276.321 108.036C276.602 108.036 276.777 107.942 276.75 107.62C276.737 107.496 276.737 107.37 276.75 107.245C276.898 106.4 276.857 106.292 276.079 105.836C275.851 105.702 275.596 105.608 275.368 105.474C275.14 105.34 275.113 105.273 275.127 105.179C275.141 105.112 275.171 105.05 275.216 104.998C275.26 104.947 275.317 104.907 275.381 104.884C275.658 104.807 275.941 104.758 276.227 104.736C276.791 104.753 277.348 104.601 277.826 104.3C278.304 103.999 278.681 103.562 278.91 103.046C279.02 102.749 279.212 102.489 279.464 102.297C279.716 102.104 280.017 101.987 280.332 101.959C281.365 101.798 281.54 101.53 281.674 100.47C281.742 100.197 281.836 99.9323 281.956 99.6784H282.184C282.355 100.038 282.498 100.41 282.613 100.792C282.72 101.235 282.949 101.53 283.391 101.57C283.784 101.617 284.18 101.617 284.572 101.57C285.256 101.489 285.914 101.355 286.598 101.275C286.853 101.275 287 101.275 287.081 100.899C287.161 100.524 287.47 100.416 287.698 100.188C287.926 99.9601 288.235 99.8528 288.248 99.4101C288.262 98.9673 288.959 98.538 289.348 98.5917C289.563 98.648 289.75 98.7818 289.872 98.9673C290.005 99.2134 290.109 99.4746 290.18 99.7455C290.525 99.4226 290.779 99.0144 290.916 98.5621C291.052 98.1099 291.067 97.6295 290.958 97.1697C290.683 97.2534 290.4 97.3118 290.113 97.344C289.726 97.4044 289.333 97.4044 288.946 97.344C287.819 97.1026 287.604 96.5928 288.248 95.6403C288.463 95.3183 288.691 94.6341 288.597 94.5536C288.168 94.245 287.779 94.6475 287.483 94.9158C286.754 95.5091 286.221 96.3087 285.954 97.2099C285.749 98.0061 285.423 98.7662 284.988 99.4637C284.8 99.7589 284.25 99.8796 283.848 99.9333C283.687 99.9333 283.458 99.6113 283.297 99.3967C283.146 99.1628 283.007 98.921 282.881 98.6722V98.8466L280.493 98.9673C280.493 98.8332 280.413 98.7393 280.386 98.632C280.051 96.9013 279.89 97.1428 281.54 96.4854C282.04 96.2002 282.493 95.838 282.881 95.4122L284.009 94.4194C284.082 94.3687 284.149 94.3102 284.21 94.245C285.337 92.7291 287.014 92.4876 288.704 92.2193C290.226 92.1623 291.741 92.4369 293.145 93.0242C293.897 93.2255 294.648 93.4669 295.547 93.7218C294.46 94.5938 293.454 93.7218 292.501 93.8828V94.0036C293.042 94.5867 293.62 95.1335 294.232 95.6403C294.648 95.9488 295.279 95.6403 295.426 95.0902C295.574 94.5402 295.654 94.5938 296.003 94.5938C296.233 94.5891 296.456 94.5182 296.647 94.3897C296.837 94.2612 296.986 94.0806 297.077 93.8694C297.251 93.5072 297.492 93.3462 297.882 93.4938C297.882 93.9231 298.016 94.0975 298.432 93.9633C298.585 93.9136 298.729 93.8413 298.861 93.7487C299.354 93.4562 299.928 93.3293 300.498 93.3864C301.281 93.3414 302.054 93.1833 302.792 92.9169C303.032 92.7993 303.302 92.7606 303.565 92.8064C303.828 92.8522 304.069 92.9801 304.255 93.1718C307.578 96.6328 310.404 100.538 312.654 104.776C315.311 109.807 317.103 115.249 317.953 120.875L318.02 120.902Z" fill="white"/>
<path d="M237.868 101.154L237.492 103.314C237.757 103.331 238.021 103.276 238.257 103.156C238.493 103.035 238.692 102.854 238.834 102.63C239.706 101.382 240.632 100.161 241.517 98.927C241.663 98.7434 241.798 98.5507 241.92 98.3501C242.166 97.8757 242.564 97.4976 243.051 97.2763C243.537 97.0549 244.084 97.0032 244.603 97.1293C245.22 97.2232 245.65 97.3574 245.596 98.0952C245.596 98.2026 245.864 98.3904 246.039 98.4172C246.855 98.4753 247.669 98.2835 248.373 97.8671C248.421 97.9793 248.457 98.0962 248.481 98.216C248.501 98.3763 248.501 98.5386 248.481 98.6989C248.32 99.3041 248.385 99.947 248.664 100.507C248.943 101.068 249.417 101.508 249.997 101.744L250.238 101.865C249.347 102.718 248.182 103.226 246.951 103.3C246.103 103.294 245.269 103.517 244.536 103.944C243.914 104.23 243.273 104.472 242.617 104.669C242.391 104.812 242.183 104.983 242 105.179L242.081 105.34L244.509 105.125C244.415 105.715 244.509 106.064 245.14 106.131C245.368 106.131 245.583 106.453 245.878 106.695C244.818 106.909 244.295 108.036 242.98 107.781L244.013 106.815C243.516 106.279 243.396 106.225 242.752 106.628C242.108 107.03 241.531 107.526 240.913 107.969C240.752 108.09 240.605 108.278 240.43 108.318C239.357 108.506 238.834 109.391 238.15 110.089C237.991 110.304 237.79 110.483 237.56 110.617C237.329 110.751 237.073 110.836 236.808 110.867C236.596 110.866 236.391 110.942 236.231 111.082C236.04 111.246 235.916 111.475 235.882 111.726C235.926 112.176 235.828 112.629 235.602 113.021C235.376 113.413 235.033 113.724 234.621 113.912C233.882 114.307 233.174 114.755 232.501 115.254C232.218 115.542 232.029 115.908 231.957 116.305C231.885 116.703 231.935 117.112 232.099 117.481C232.221 117.743 232.284 118.03 232.284 118.319C232.284 118.609 232.221 118.895 232.099 119.158C232.099 119.292 231.736 119.399 231.535 119.413C231.334 119.426 231.213 119.211 231.173 119.064C230.998 118.393 230.891 117.722 230.717 117.025C230.622 116.795 230.505 116.575 230.368 116.367L230.234 116.434V117.213L230.099 117.306C229.931 117.109 229.752 116.921 229.563 116.743C229.309 116.498 229.025 116.286 228.718 116.112C228.562 116.036 228.383 116.023 228.218 116.075C228.053 116.128 227.915 116.242 227.832 116.394C227.504 116.818 227.155 117.226 226.786 117.615C226.507 117.283 226.211 116.965 225.9 116.662C225.831 116.607 225.751 116.568 225.665 116.547C225.579 116.526 225.49 116.524 225.404 116.542C224.762 116.646 224.181 116.98 223.767 117.481C223.332 118.01 222.847 118.495 222.318 118.93C222.076 119.099 221.905 119.351 221.838 119.638C221.771 119.926 221.813 120.228 221.955 120.486C222.016 120.705 222.016 120.937 221.955 121.157C221.834 121.786 221.955 122.438 222.293 122.983C222.631 123.527 223.162 123.924 223.78 124.095C224.107 124.206 224.462 124.199 224.784 124.074C225.106 123.949 225.373 123.714 225.538 123.411C225.672 123.115 225.779 122.807 225.9 122.512C225.926 122.423 225.971 122.342 226.032 122.272C226.092 122.202 226.167 122.147 226.251 122.109C226.335 122.07 226.426 122.051 226.518 122.051C226.611 122.051 226.702 122.071 226.786 122.109C226.973 122.203 227.094 122.659 227.054 122.928C226.936 123.44 226.779 123.942 226.584 124.43C226.41 124.98 226.584 125.222 227.121 125.356C227.658 125.49 227.98 125.49 228.463 125.544C228.581 125.538 228.698 125.561 228.806 125.609C228.914 125.656 229.01 125.729 229.085 125.82C229.161 125.911 229.214 126.018 229.241 126.133C229.268 126.248 229.268 126.368 229.241 126.483C229.174 127.107 229.174 127.737 229.241 128.361C229.342 128.737 229.541 129.08 229.818 129.354C229.922 129.407 230.037 129.434 230.153 129.434C230.27 129.434 230.385 129.407 230.489 129.354C230.682 129.217 230.908 129.134 231.143 129.113C231.379 129.092 231.616 129.133 231.83 129.233L232.354 129.367C233.118 129.555 233.333 129.367 233.843 128.857C234.192 128.529 234.59 128.257 235.023 128.052C235.089 128.035 235.158 128.035 235.223 128.051C235.289 128.068 235.349 128.1 235.399 128.146C235.435 128.202 235.454 128.268 235.454 128.334C235.454 128.401 235.435 128.466 235.399 128.522C234.983 128.898 235.211 129.085 235.587 129.246L236.499 129.622C235.922 128.683 236.687 128.361 237.036 127.797C237.177 127.869 237.308 127.96 237.425 128.066C237.679 128.341 237.992 128.555 238.341 128.692C238.689 128.829 239.064 128.886 239.438 128.857C240.468 128.843 241.462 129.239 242.202 129.957C243.213 130.839 244.432 131.448 245.744 131.728C246.023 131.779 246.288 131.891 246.52 132.056C246.752 132.22 246.945 132.434 247.085 132.681C247.327 133.083 247.635 133.445 247.89 133.835C247.981 133.939 248.045 134.065 248.074 134.201C248.104 134.337 248.099 134.478 248.061 134.611C248.022 134.745 247.951 134.866 247.853 134.965C247.755 135.063 247.634 135.136 247.501 135.176L246.884 135.458C247.058 135.78 247.233 135.874 247.541 135.699C247.755 135.567 247.992 135.476 248.239 135.431C248.43 135.457 248.608 135.542 248.749 135.672C248.749 135.672 248.668 135.901 248.628 136.021C248.588 136.142 248.534 136.316 248.628 136.343C248.742 136.41 248.872 136.443 249.004 136.437C249.112 136.413 249.21 136.357 249.286 136.276C249.391 136.154 249.522 136.056 249.669 135.989C249.816 135.922 249.976 135.887 250.138 135.887C250.299 135.887 250.459 135.922 250.606 135.989C250.753 136.056 250.884 136.154 250.99 136.276C251.057 136.276 251.191 136.37 251.191 136.437C251.271 137.323 251.875 136.96 252.264 136.813C252.449 136.737 252.649 136.704 252.849 136.716C253.048 136.727 253.243 136.783 253.418 136.88C254.371 137.282 255.337 137.618 256.316 137.94C256.462 137.979 256.591 138.065 256.685 138.183C256.779 138.301 256.833 138.446 256.839 138.597C256.939 139.353 256.871 140.121 256.639 140.847C256.407 141.573 256.017 142.239 255.498 142.796C255.426 142.905 255.323 142.989 255.202 143.038C254.773 143.225 254.733 143.574 254.733 143.977C254.733 144.97 254.733 145.976 254.585 146.955C254.454 147.566 254.242 148.157 253.955 148.712C253.74 149.169 253.525 149.638 252.801 149.517C252.479 149.517 252.063 149.786 251.741 150.014C251.206 150.344 250.719 150.746 250.292 151.208C250.042 151.618 249.878 152.074 249.809 152.549C249.629 153.409 249.391 154.257 249.098 155.085C248.897 155.568 248.32 155.876 247.957 156.292C247.689 156.666 247.291 156.924 246.84 157.016C246.39 157.108 245.922 157.027 245.529 156.789C245.328 157.379 245.717 157.741 245.945 158.13C246.307 158.761 246.307 158.747 245.703 159.177C245.171 159.598 244.66 160.045 244.174 160.518C243.998 160.689 243.868 160.902 243.798 161.137C243.727 161.371 243.718 161.62 243.771 161.86C243.777 162.313 243.718 162.765 243.597 163.201C243.539 163.421 243.508 163.646 243.503 163.872C243.503 164.315 243.704 164.758 243.758 165.214C243.852 165.965 243.905 166.716 243.973 167.454C243.973 167.736 244.08 167.924 244.429 167.951C244.563 167.951 244.737 168.125 244.804 168.259C245.006 168.675 245.167 169.118 245.354 169.601C245.238 169.69 245.104 169.756 244.962 169.794C244.819 169.832 244.671 169.841 244.525 169.821C244.379 169.801 244.238 169.752 244.111 169.678C243.984 169.603 243.873 169.504 243.785 169.386C243.51 168.874 243.063 168.475 242.523 168.259C241.646 167.88 240.942 167.186 240.551 166.314C239.946 165.462 239.643 164.433 239.693 163.389C239.771 163.031 239.718 162.656 239.543 162.333C239.368 162.011 239.083 161.762 238.74 161.632C238.606 161.632 238.498 161.31 238.472 161.135C238.391 160.398 238.351 159.66 238.284 158.922C238.136 157.352 237.948 155.796 237.854 154.24C237.854 153.073 237.854 151.892 237.854 150.725C237.854 150.188 237.854 149.665 237.854 149.142C237.799 148.463 237.54 147.817 237.112 147.288C236.683 146.759 236.105 146.372 235.453 146.177C235.1 146.112 234.783 145.921 234.561 145.64C234.338 145.358 234.226 145.006 234.245 144.648C234.254 144.329 234.171 144.015 234.007 143.741C233.843 143.468 233.604 143.247 233.32 143.105C232.543 142.67 231.955 141.963 231.669 141.119C231.561 140.872 231.407 140.649 231.213 140.462C231.001 140.263 230.845 140.012 230.761 139.735C230.676 139.457 230.665 139.162 230.73 138.879C230.75 138.492 230.723 138.105 230.65 137.725C230.594 137.465 230.571 137.199 230.582 136.934C230.694 136.185 230.969 135.471 231.388 134.841C231.849 134.162 232.232 133.433 232.528 132.667C232.691 132.254 232.712 131.797 232.588 131.37C232.464 130.943 232.203 130.569 231.844 130.306C231.724 130.25 231.593 130.221 231.461 130.221C231.329 130.221 231.199 130.25 231.079 130.306C230.831 130.457 230.542 130.528 230.253 130.511C229.963 130.494 229.685 130.39 229.455 130.212C228.493 129.598 227.703 128.748 227.161 127.744C227.064 127.602 226.93 127.49 226.772 127.422C226.532 127.343 226.285 127.289 226.034 127.261C225.699 127.243 225.37 127.157 225.068 127.01C224.766 126.862 224.497 126.656 224.277 126.402C224.009 126.12 223.679 125.902 223.314 125.767C222.949 125.632 222.557 125.583 222.17 125.624C222.064 125.644 221.955 125.644 221.848 125.624C220.285 125.215 218.865 124.384 217.743 123.223C217.57 123.001 217.448 122.745 217.386 122.471C217.323 122.198 217.321 121.914 217.38 121.64C217.792 118.508 218.497 115.423 219.487 112.423C221.008 107.799 223.201 103.424 225.994 99.4368C227.027 97.9342 228.221 96.5524 229.335 95.1035C229.509 94.8889 229.684 94.795 229.925 94.9694C230.095 95.0698 230.284 95.1346 230.48 95.1599C230.676 95.1853 230.875 95.1707 231.065 95.117C231.978 95.0096 232.917 95.0499 233.749 94.8621C234.838 94.6333 235.903 94.3009 236.929 93.8693C237.309 93.6544 237.635 93.3552 237.881 92.9947C238.128 92.6343 238.288 92.2221 238.351 91.7899C238.418 91.5484 238.498 91.3069 238.566 91.0654C238.834 90.18 238.834 90.18 239.76 90.3946L241.625 90.8105C241.101 90.9983 240.551 91.1727 240.028 91.3874C239.719 91.5081 239.666 91.7094 239.894 91.9777C240.122 92.246 240.605 92.8899 240.994 93.3192C241.053 93.3829 241.127 93.4309 241.208 93.459C241.29 93.4871 241.378 93.4944 241.464 93.4802C242.215 93.1729 243.032 93.062 243.838 93.1583C243.639 93.5177 243.395 93.8511 243.114 94.151C242.824 94.3745 242.483 94.5221 242.121 94.5803C241.195 94.7681 240.243 94.8889 239.303 95.0365C239.252 95.3539 239.088 95.6423 238.842 95.8491C238.596 96.056 238.283 96.1675 237.962 96.1634C236.749 96.3541 235.612 96.8738 234.675 97.6659C234.333 97.8444 234.071 98.1453 233.942 98.5085C233.812 98.8717 233.825 99.2703 233.977 99.6246C234.071 99.9198 234.165 100.295 234.648 100.067C234.728 100.067 234.876 100.067 234.983 100.161C235.426 100.389 235.869 100.644 236.325 100.872C236.781 101.1 237.076 101.342 237.573 101.181C237.617 101.155 237.666 101.139 237.717 101.135C237.768 101.13 237.82 101.137 237.868 101.154Z" fill="white"/>
<path d="M252.21 88.5702C253.364 88.3824 254.465 88.2348 255.538 88.0202C255.998 87.896 256.446 87.7344 256.88 87.5372C258.034 86.978 259.317 86.7371 260.596 86.8396C261.79 87.014 262.998 87.0945 264.205 87.1884C264.428 87.2312 264.658 87.2168 264.874 87.1464C265.09 87.076 265.285 86.952 265.44 86.7859C265.56 86.6249 265.896 86.5981 266.137 86.5579C267.076 86.4103 268.016 86.2359 268.968 86.142C269.467 86.0751 269.972 86.0751 270.471 86.142C271.625 86.3298 272.779 86.5445 273.932 86.7591C274.118 86.7809 274.292 86.8607 274.429 86.9872C273.946 86.9872 273.463 86.9872 272.993 87.0945C272.688 87.1182 272.39 87.1907 272.108 87.3091C271.678 87.5238 271.276 87.7653 271.262 88.3958C271.256 88.7083 271.145 89.0097 270.949 89.2526C270.752 89.4955 270.48 89.666 270.176 89.7374C269.549 89.977 268.935 90.2502 268.338 90.5557C268.016 90.7033 268.016 90.8777 268.338 91.0521L269.679 91.79C268.941 92.0851 268.941 92.0851 267.412 91.3875L268.069 92.4608C267.076 92.7157 266.07 93.0108 265.05 93.2389C264.107 93.4148 263.224 93.8307 262.488 94.4463C261.746 94.9659 260.871 95.2637 259.965 95.3049C259.496 95.3854 259.107 95.4793 259.12 96.1232C259.06 96.3867 258.913 96.6226 258.704 96.794C258.455 97.0249 258.18 97.2273 257.886 97.3977C257.643 97.5761 257.355 97.6828 257.054 97.7056C256.754 97.7284 256.453 97.6663 256.186 97.5265C255.919 97.3868 255.696 97.1748 255.544 96.9149C255.391 96.6549 255.315 96.3574 255.323 96.0562C255.277 95.7359 255.277 95.4105 255.323 95.0902C255.413 94.6987 255.563 94.3232 255.766 93.9767C255.86 93.821 255.983 93.6845 256.128 93.5742C256.439 93.3192 256.676 92.9862 256.816 92.6092C256.956 92.2323 256.992 91.825 256.923 91.4291C256.853 91.0332 256.679 90.663 256.42 90.3563C256.16 90.0496 255.823 89.8175 255.444 89.6837C254.72 89.2457 253.91 88.971 253.069 88.8788C252.766 88.8331 252.474 88.7282 252.21 88.5702Z" fill="white"/>
<path d="M243.382 89.9117C243.771 89.2409 244.201 89.0397 244.871 89.3482C245.197 89.5199 245.554 89.6228 245.921 89.6505C246.288 89.6782 246.657 89.6301 247.005 89.5092L247.112 89.63C247.018 89.7775 246.938 89.9922 246.803 90.0593C246.669 90.1263 246.106 90.2068 245.784 90.3276C245.706 90.358 245.636 90.4049 245.578 90.4651C245.52 90.5253 245.476 90.5974 245.448 90.6764C245.448 90.7703 245.609 90.9715 245.73 91.0118L249.755 92.1521C249.819 92.185 249.874 92.2326 249.916 92.2909C249.958 92.3492 249.986 92.4165 249.997 92.4875C249.99 92.6655 249.959 92.8416 249.903 93.0107C249.688 93.9766 249.903 94.3523 250.949 94.3523C250.956 94.5185 250.902 94.6815 250.799 94.8119C250.696 94.9423 250.549 95.0314 250.386 95.0633C249.742 95.2377 249.044 95.4255 248.467 95.6402C248.185 95.7341 247.877 95.828 247.957 96.2573C247.957 96.3378 247.89 96.4585 247.823 96.5256C247.553 96.718 247.229 96.8214 246.897 96.8214C246.566 96.8214 246.242 96.718 245.972 96.5256C245.859 96.401 245.781 96.2483 245.747 96.0834C245.714 95.9186 245.725 95.7478 245.78 95.5888C245.834 95.4297 245.931 95.2883 246.059 95.1794C246.187 95.0704 246.343 94.9979 246.508 94.9694C246.884 94.8755 247.287 94.8487 247.676 94.7413C247.852 94.7034 248.006 94.5973 248.105 94.4462C248.105 94.3523 247.984 94.1242 247.863 94.0169C246.878 93.1185 245.601 92.6084 244.268 92.5814C243.53 92.5814 242.792 92.4607 242.054 92.3802C241.745 92.3802 241.343 92.3802 241.316 91.9106C241.299 91.8105 241.306 91.7079 241.335 91.6107C241.364 91.5134 241.414 91.4239 241.483 91.349C241.551 91.2741 241.636 91.2157 241.73 91.1782C241.824 91.1407 241.926 91.1251 242.027 91.1325C242.512 91.1099 242.996 91.0607 243.476 90.9849C243.677 90.9849 243.999 90.7971 244.026 90.6496C244.093 90.3007 243.879 90.0727 243.49 90.0727C243.476 89.9117 243.449 89.9117 243.382 89.9117Z" fill="white"/>
<path d="M305.583 142.635C306.044 143.729 306.101 144.951 305.744 146.083C305.341 147.076 305.1 148.149 304.764 149.169C304.649 149.472 304.505 149.764 304.335 150.041C303.825 150.98 303.825 150.98 302.792 150.792C302.595 150.727 302.413 150.623 302.256 150.487C302.099 150.351 301.971 150.186 301.878 150C301.786 149.814 301.732 149.611 301.718 149.404C301.704 149.197 301.732 148.989 301.799 148.793C302.062 148.452 302.287 148.083 302.47 147.693C302.57 147.251 302.57 146.793 302.47 146.351C302.449 146.046 302.527 145.742 302.691 145.484C302.855 145.226 303.097 145.027 303.382 144.916C303.532 144.885 303.67 144.815 303.785 144.715C304.308 144.191 304.818 143.668 305.301 143.132C305.414 142.978 305.508 142.811 305.583 142.635Z" fill="white"/>
<path d="M256.303 86.2224C255.387 86.9287 254.307 87.3904 253.163 87.564C251.581 87.826 250.072 88.4204 248.736 89.308C248.293 89.5764 247.863 89.8044 247.541 89.1336C247.474 89.0129 247.233 88.9458 247.072 88.919C246.651 88.8759 246.233 88.7996 245.824 88.6909C245.943 88.5803 246.079 88.4897 246.227 88.4226C246.575 88.3153 246.938 88.2482 247.287 88.1543C247.635 88.0604 248.118 87.9799 248.266 87.4567C248.314 87.3484 248.387 87.2524 248.477 87.1758C248.568 87.0991 248.674 87.0438 248.789 87.014C249.487 86.853 250.211 86.7591 250.936 86.6383C251.389 86.6268 251.839 86.5638 252.278 86.4505C253.073 86.1469 253.924 86.0187 254.773 86.0749C255.037 86.0887 255.301 86.0887 255.565 86.0749H256.329L256.303 86.2224Z" fill="white"/>
<path d="M276.24 101.409C275.932 100.939 275.489 100.725 275.18 100.926C274.281 101.543 274.214 101.704 274.63 102.361L272.859 103.032C272.725 102.415 273.449 101.852 272.859 101.288C272.981 101.082 273.156 100.912 273.366 100.797C273.576 100.681 273.814 100.624 274.053 100.631H274.751C275.127 100.631 275.422 100.483 275.368 100.014C275.353 99.8702 275.381 99.7253 275.449 99.5978C275.596 99.3832 275.757 99.088 275.972 99.0478C276.186 99.0075 276.415 99.2222 276.71 99.3698C276.173 99.9198 276.401 100.228 276.871 100.47C276.984 100.524 277.082 100.607 277.152 100.711C277.276 101.089 277.447 101.45 277.662 101.785C277.986 102.044 278.348 102.253 278.736 102.402C278.418 102.684 278.082 102.943 277.729 103.18C277.392 103.388 277.026 103.546 276.643 103.649C276.331 103.69 276.015 103.69 275.703 103.649V103.475L276.361 103.059C276.133 102.777 275.784 102.536 275.757 102.268C275.73 101.999 276.052 101.731 276.24 101.409Z" fill="white"/>
<path d="M268.177 95.278C268.399 95.1703 268.627 95.0762 268.861 94.9962C269.572 94.795 270.296 94.6072 271.021 94.4328C271.383 94.3523 271.772 94.3523 271.893 94.7279C272.014 95.1036 271.745 95.278 271.558 95.3987C271.136 95.6745 270.687 95.9039 270.216 96.0829C270.006 96.1915 269.765 96.2227 269.534 96.1712C269.304 96.1197 269.098 95.9887 268.955 95.8012C268.807 95.6134 268.499 95.5731 268.257 95.4524L268.177 95.278Z" fill="white"/>
<path d="M247.528 105.299C248.098 104.483 248.903 103.861 249.836 103.515L249.366 103.931C249.581 104.025 249.782 104.065 249.876 104.186C249.97 104.307 250.413 104.736 250.359 104.91C250.314 105.095 250.2 105.255 250.04 105.358C249.88 105.46 249.687 105.497 249.5 105.46C248.87 105.353 248.226 105.353 247.528 105.299Z" fill="white"/>
<path d="M294.366 171.372L294.286 171.962C287.783 175.87 280.498 178.294 272.95 179.063C265.402 179.831 257.778 178.923 250.621 176.405C243.464 173.887 236.952 169.821 231.548 164.496C226.144 159.171 221.983 152.719 219.36 145.6C216.738 138.481 215.719 130.872 216.377 123.314C217.035 115.757 219.354 108.437 223.167 101.879C226.98 95.3206 232.194 89.6847 238.437 85.3735C244.679 81.0623 251.797 78.1822 259.281 76.9387C255.635 79.9457 252.292 83.3021 249.299 86.9602C248.722 87.6712 248.118 88.4225 247.555 89.1872C246.991 89.9519 246.629 90.4215 246.213 91.0788C245.797 91.7362 245.542 92.0582 245.22 92.5545C244.006 94.4164 242.908 96.352 241.933 98.3501C240.083 102.104 238.773 106.102 238.042 110.223C236.963 116.513 237.489 122.973 239.572 129.005C240.609 132.064 241.958 135.009 243.597 137.792C246.087 142.066 248.956 146.107 252.17 149.866C271.652 172.512 294.366 171.372 294.366 171.372Z" fill="url(#paint0_linear)"/>
<path d="M507.829 161.86C506.407 167.333 499.967 166.381 499.967 166.381C499.967 166.381 462.399 167.079 461.661 166.381C460.924 165.683 461.46 163.59 461.594 162.799L461.661 162.517H472.395C472.395 162.517 477.467 159.834 469.161 147.934C462.171 137.886 488.522 137.43 497.136 137.551C498.773 137.551 499.819 137.551 499.819 137.551C499.819 137.551 509.238 156.386 507.829 161.86Z" fill="#8CC5F9"/>
<path d="M503.361 158.023C502.019 163.483 495.459 162.464 495.459 162.464C495.459 162.464 471.644 162.933 461.554 162.745L461.621 162.464H472.355C472.355 162.464 477.426 159.78 469.121 147.881C462.131 137.832 488.482 137.376 497.095 137.497C499.779 143.279 504.394 154.092 503.361 158.023Z" fill="#8CC5F9"/>
<path d="M504.904 158.828C503.495 164.288 495.512 162.464 495.512 162.464C495.512 162.464 471.697 162.933 461.608 162.745L461.675 162.464H472.408C472.408 162.464 477.48 159.78 469.175 147.881C462.185 137.832 488.535 137.376 497.149 137.497C499.779 143.279 505.924 154.897 504.904 158.828Z" fill="url(#paint1_linear)"/>
<path d="M521.004 83.4453H440.664C436.492 83.4453 433.11 86.8269 433.11 90.9983V139.939C433.11 144.11 436.492 147.492 440.664 147.492H521.004C525.176 147.492 528.558 144.11 528.558 139.939V90.9983C528.558 86.8269 525.176 83.4453 521.004 83.4453Z" fill="#8CC5F9"/>
<path d="M521.004 83.4453H440.664C436.492 83.4453 433.11 86.8269 433.11 90.9983V139.939C433.11 144.11 436.492 147.492 440.664 147.492H521.004C525.176 147.492 528.558 144.11 528.558 139.939V90.9983C528.558 86.8269 525.176 83.4453 521.004 83.4453Z" fill="url(#paint2_linear)"/>
<path d="M518.978 83.4453H438.638C434.466 83.4453 431.084 86.8269 431.084 90.9983V139.939C431.084 144.11 434.466 147.492 438.638 147.492H518.978C523.15 147.492 526.532 144.11 526.532 139.939V90.9983C526.532 86.8269 523.15 83.4453 518.978 83.4453Z" fill="#8CC5F9"/>
<path d="M518.978 83.4453H438.638C434.466 83.4453 431.084 86.8269 431.084 90.9983V139.939C431.084 144.11 434.466 147.492 438.638 147.492H518.978C523.15 147.492 526.532 144.11 526.532 139.939V90.9983C526.532 86.8269 523.15 83.4453 518.978 83.4453Z" fill="url(#paint3_linear)"/>
<path d="M526.465 133.566L526.532 139.925C526.532 140.918 526.336 141.902 525.956 142.819C525.575 143.736 525.018 144.569 524.315 145.271C523.612 145.972 522.778 146.528 521.86 146.907C520.942 147.286 519.958 147.48 518.965 147.478H438.638C436.635 147.478 434.713 146.683 433.297 145.266C431.88 143.85 431.084 141.928 431.084 139.925V133.566H526.465Z" fill="#8CC5F9"/>
<path d="M499.081 162.772H461.621V166.327H499.081V162.772Z" fill="url(#paint4_linear)"/>
<path d="M504.904 158.828L505.253 165.2C504.355 165.798 503.344 166.206 502.283 166.4C501.222 166.594 500.132 166.569 499.081 166.327V162.759C499.081 162.759 504.394 164.288 504.904 158.828Z" fill="url(#paint5_linear)"/>
<path d="M58.2427 121.653C59.3294 125.799 64.24 125.047 64.24 125.047C64.24 125.047 92.7375 125.57 93.2741 125.047C93.8108 124.524 93.4217 122.928 93.2741 122.364C93.2824 122.297 93.2824 122.23 93.2741 122.163H85.1301C85.1301 122.163 81.2929 120.164 87.5854 111.108C92.9521 103.488 72.9073 103.139 66.3867 103.233C65.1389 103.233 64.3876 103.233 64.3876 103.233C64.3876 103.233 57.2096 117.508 58.2427 121.653Z" fill="#8CC5F9"/>
<path d="M61.6371 118.742C62.6971 122.887 67.6211 122.123 67.6211 122.123C67.6211 122.123 85.6802 122.472 93.3144 122.324C93.3227 122.257 93.3227 122.19 93.3144 122.123H85.1301C85.1301 122.123 81.2929 120.124 87.5854 111.068C92.9521 103.448 72.9073 103.099 66.3867 103.193C64.3474 107.567 60.859 115.764 61.6371 118.742Z" fill="#8CC5F9"/>
<path d="M60.4699 119.426C61.5298 123.572 67.6211 122.19 67.6211 122.19C67.6211 122.19 85.6802 122.539 93.3144 122.391C93.3227 122.324 93.3227 122.257 93.3144 122.19H85.1301C85.1301 122.19 81.2929 120.191 87.5854 111.135C92.9521 103.515 72.9073 103.166 66.3867 103.26C64.3474 107.567 59.6917 116.381 60.4699 119.426Z" fill="url(#paint6_linear)"/>
<path d="M109.16 62.2217H48.2739C45.1099 62.2217 42.5449 64.7864 42.5449 67.9502V105.031C42.5449 108.195 45.1099 110.76 48.2739 110.76H109.16C112.324 110.76 114.889 108.195 114.889 105.031V67.9502C114.889 64.7864 112.324 62.2217 109.16 62.2217Z" fill="#8CC5F9"/>
<path d="M109.16 62.2217H48.2739C45.1099 62.2217 42.5449 64.7864 42.5449 67.9502V105.031C42.5449 108.195 45.1099 110.76 48.2739 110.76H109.16C112.324 110.76 114.889 108.195 114.889 105.031V67.9502C114.889 64.7864 112.324 62.2217 109.16 62.2217Z" fill="url(#paint7_linear)"/>
<path d="M110.689 62.2217H49.8035C46.6394 62.2217 44.0744 64.7864 44.0744 67.9502V105.031C44.0744 108.195 46.6394 110.76 49.8035 110.76H110.689C113.853 110.76 116.418 108.195 116.418 105.031V67.9502C116.418 64.7864 113.853 62.2217 110.689 62.2217Z" fill="#8CC5F9"/>
<path d="M110.689 62.2217H49.8035C46.6394 62.2217 44.0744 64.7864 44.0744 67.9502V105.031C44.0744 108.195 46.6394 110.76 49.8035 110.76H110.689C113.853 110.76 116.418 108.195 116.418 105.031V67.9502C116.418 64.7864 113.853 62.2217 110.689 62.2217Z" fill="url(#paint8_linear)"/>
<path d="M44.1147 100.202V105.031C44.1147 106.55 44.7183 108.008 45.7927 109.082C46.8671 110.156 48.3243 110.76 49.8437 110.76H110.689C112.209 110.76 113.666 110.156 114.74 109.082C115.815 108.008 116.418 106.55 116.418 105.031V100.202H44.1147Z" fill="#8CC5F9"/>
<path d="M64.884 125.047H93.2741V122.351H64.884V125.047Z" fill="url(#paint9_linear)"/>
<path d="M60.4699 119.426L60.2015 124.256C60.8828 124.709 61.6493 125.02 62.4544 125.167C63.2594 125.315 64.0861 125.297 64.884 125.114V122.431C64.884 122.431 60.8455 123.451 60.4699 119.426Z" fill="url(#paint10_linear)"/>
<path d="M360.927 91.0923L323.803 85.5516C323.203 85.4625 322.65 85.1725 322.236 84.7291C321.822 84.2856 321.57 83.7149 321.522 83.1099L318.839 52.9381C318.799 52.5306 318.853 52.1194 318.997 51.736C319.141 51.3526 319.37 51.0071 319.668 50.7262C319.966 50.4452 320.324 50.2361 320.715 50.1149C321.106 49.9937 321.52 49.9636 321.925 50.0269L359.089 55.581C359.697 55.6651 360.257 55.9545 360.677 56.4012C361.097 56.8479 361.351 57.4248 361.397 58.0361L364.013 88.1676C364.055 88.5762 364.003 88.989 363.86 89.3741C363.717 89.7593 363.488 90.1065 363.19 90.389C362.892 90.6716 362.533 90.8819 362.141 91.0038C361.748 91.1258 361.333 91.156 360.927 91.0923Z" fill="#8CC5F9"/>
<path d="M359.156 87.6579L325.614 82.6539C325.08 82.5798 324.585 82.3299 324.209 81.9437C323.832 81.5574 323.595 81.0568 323.535 80.5208L321.012 54.3334C320.986 53.9736 321.043 53.6127 321.178 53.278C321.312 52.9433 321.521 52.6437 321.789 52.4018C322.057 52.16 322.376 51.9824 322.723 51.8824C323.069 51.7824 323.434 51.7627 323.79 51.8247L357.332 56.8287C357.867 56.9006 358.363 57.1498 358.74 57.5364C359.117 57.9231 359.353 58.425 359.411 58.9618L361.934 85.1626C361.96 85.522 361.904 85.8827 361.769 86.217C361.634 86.5512 361.425 86.8503 361.157 87.0911C360.889 87.332 360.569 87.5083 360.222 87.6065C359.876 87.7048 359.511 87.7224 359.156 87.6579Z" fill="url(#paint11_linear)"/>
<path d="M324.485 84.4944L372.919 91.7322C373.352 91.7969 373.741 92.0309 374.001 92.3827C374.262 92.7345 374.372 93.1753 374.307 93.6081C374.242 94.0409 374.008 94.4303 373.656 94.6907C373.305 94.951 372.864 95.0609 372.431 94.9962L323.997 87.7584C323.568 87.6942 323.182 87.4622 322.923 87.1132C322.665 86.7643 322.556 86.3271 322.62 85.8977C322.649 85.6824 322.72 85.4749 322.83 85.2874C322.939 85.0998 323.085 84.936 323.259 84.8054C323.432 84.6748 323.63 84.58 323.841 84.5266C324.051 84.4732 324.27 84.4623 324.485 84.4944Z" fill="#8CC5F9"/>
<path d="M384.637 93.4686L345.691 87.6486C344.878 87.527 344.12 88.0878 343.998 88.9012L343.949 89.2329C343.827 90.0463 344.388 90.8043 345.201 90.9258L384.147 96.7458C384.961 96.8674 385.719 96.3066 385.84 95.4932L385.89 95.1615C386.011 94.3481 385.451 93.5901 384.637 93.4686Z" fill="#8CC5F9"/>
<path d="M384.637 93.4686L345.691 87.6486C344.878 87.527 344.12 88.0878 343.998 88.9012L343.949 89.2329C343.827 90.0463 344.388 90.8043 345.201 90.9258L384.147 96.7458C384.961 96.8674 385.719 96.3066 385.84 95.4932L385.89 95.1615C386.011 94.3481 385.451 93.5901 384.637 93.4686Z" fill="url(#paint12_linear)"/>
<path d="M168.57 141.159L136.128 153.435C135.605 153.636 135.03 153.655 134.496 153.486C133.962 153.318 133.502 152.974 133.189 152.509L117.425 129.367C117.211 129.055 117.072 128.699 117.016 128.325C116.961 127.951 116.991 127.569 117.105 127.209C117.219 126.848 117.413 126.518 117.673 126.244C117.933 125.969 118.251 125.757 118.605 125.624L151.047 113.335C151.576 113.14 152.154 113.127 152.691 113.297C153.228 113.467 153.693 113.811 154.012 114.274L169.724 137.39C169.937 137.702 170.078 138.059 170.135 138.433C170.193 138.808 170.165 139.19 170.054 139.552C169.943 139.914 169.752 140.247 169.495 140.525C169.238 140.803 168.922 141.02 168.57 141.159Z" fill="#8CC5F9"/>
<path d="M165.564 139.187L136.289 150.282C135.82 150.483 135.297 150.516 134.808 150.374C134.318 150.232 133.893 149.924 133.605 149.504L119.799 129.515C119.612 129.238 119.492 128.922 119.447 128.591C119.402 128.26 119.434 127.923 119.54 127.606C119.647 127.289 119.825 127.002 120.06 126.765C120.296 126.528 120.583 126.349 120.9 126.241L150.175 115.147C150.644 114.953 151.165 114.925 151.653 115.066C152.14 115.208 152.566 115.51 152.859 115.925L166.718 135.914C166.901 136.195 167.018 136.515 167.058 136.848C167.098 137.181 167.06 137.519 166.949 137.835C166.837 138.152 166.654 138.438 166.414 138.673C166.174 138.907 165.883 139.083 165.564 139.187Z" fill="url(#paint13_linear)"/>
<path d="M136.188 152.28L178.495 136.252C178.875 136.109 179.296 136.122 179.665 136.288C180.035 136.455 180.324 136.761 180.468 137.141C180.611 137.52 180.598 137.941 180.432 138.311C180.265 138.681 179.959 138.969 179.579 139.113L137.272 155.14C137.085 155.217 136.884 155.255 136.681 155.253C136.479 155.251 136.279 155.208 136.093 155.127C135.907 155.047 135.74 154.929 135.6 154.783C135.46 154.636 135.351 154.463 135.279 154.274C135.203 154.084 135.167 153.88 135.172 153.675C135.176 153.47 135.223 153.269 135.308 153.082C135.393 152.896 135.514 152.729 135.666 152.591C135.817 152.453 135.995 152.347 136.188 152.28Z" fill="#8CC5F9"/>
<path d="M188.733 132.368L154.719 145.253C154.005 145.524 153.646 146.321 153.916 147.035L154.021 147.311C154.291 148.025 155.089 148.384 155.803 148.114L189.817 135.228C190.53 134.958 190.89 134.16 190.619 133.446L190.515 133.17C190.244 132.457 189.447 132.097 188.733 132.368Z" fill="#8CC5F9"/>
<path d="M188.733 132.368L154.719 145.253C154.005 145.524 153.646 146.321 153.916 147.035L154.021 147.311C154.291 148.025 155.089 148.384 155.803 148.114L189.817 135.228C190.53 134.958 190.89 134.16 190.619 133.446L190.515 133.17C190.244 132.457 189.447 132.097 188.733 132.368Z" fill="url(#paint14_linear)"/>
<path d="M199.561 155.743L167.502 158.756C162.685 159.209 159.146 163.481 159.599 168.298L167.226 249.427C167.679 254.244 171.951 257.782 176.769 257.329L208.828 254.316C213.645 253.863 217.184 249.591 216.731 244.774L209.104 163.645C208.651 158.828 204.379 155.29 199.561 155.743Z" fill="#8CC5F9"/>
<path d="M199.561 155.743L167.502 158.756C162.685 159.209 159.146 163.481 159.599 168.298L167.226 249.427C167.679 254.244 171.951 257.782 176.769 257.329L208.828 254.316C213.645 253.863 217.184 249.591 216.731 244.774L209.104 163.645C208.651 158.828 204.379 155.29 199.561 155.743Z" fill="url(#paint15_linear)"/>
<path d="M199.646 155.637L167.4 158.668C162.634 159.116 159.134 163.342 159.582 168.108L167.029 247.327C167.477 252.092 171.704 255.592 176.47 255.144L208.716 252.113C213.482 251.665 216.982 247.439 216.534 242.674L209.087 163.455C208.639 158.689 204.412 155.19 199.646 155.637Z" fill="#8CC5F9"/>
<path d="M198.373 157.991L169.346 160.719C165.067 161.122 161.925 164.916 162.327 169.195L169.012 240.306C169.414 244.585 173.209 247.727 177.488 247.325L206.515 244.596C210.794 244.194 213.936 240.4 213.534 236.121L206.849 165.01C206.447 160.731 202.652 157.589 198.373 157.991Z" fill="white"/>
<path d="M247.447 64.2207C246.599 64.2364 245.766 63.9879 245.065 63.5095C244.364 63.0312 243.829 62.3467 243.534 61.5508C243.24 60.7549 243.2 59.8871 243.42 59.0675C243.64 58.2479 244.11 57.5171 244.764 56.9763C251.043 51.7576 266.66 44.7814 280.896 55.6347C281.35 55.9515 281.736 56.357 282.03 56.8269C282.324 57.2968 282.519 57.8212 282.605 58.3687C282.691 58.9162 282.665 59.4753 282.528 60.0124C282.392 60.5495 282.148 61.0534 281.812 61.4939C281.476 61.9343 281.054 62.3022 280.572 62.5752C280.089 62.8482 279.557 63.0208 279.006 63.0826C278.455 63.1443 277.898 63.0939 277.367 62.9345C276.837 62.775 276.344 62.5098 275.918 62.1547C263.36 52.5625 250.547 62.8389 249.997 63.2816C249.278 63.8739 248.379 64.205 247.447 64.2207Z" fill="#8CC5F9"/>
<path d="M237.72 51.0062C237.182 51.0111 236.648 50.908 236.15 50.7029C235.652 50.4978 235.201 50.1949 234.822 49.8122C234.059 49.0433 233.631 48.0042 233.631 46.9211C233.631 45.8381 234.059 44.799 234.822 44.0301C235.064 43.802 258.718 20.5124 288.986 42.1653C289.876 42.7968 290.478 43.7559 290.66 44.8314C290.843 45.907 290.591 47.011 289.959 47.9005C289.646 48.3409 289.25 48.7155 288.792 49.0027C288.335 49.2899 287.825 49.4843 287.292 49.5746C286.217 49.757 285.113 49.5047 284.223 48.8731C259.724 31.3657 241.41 49.0878 240.645 49.8525C240.26 50.2312 239.803 50.5285 239.3 50.7267C238.798 50.9249 238.26 51.02 237.72 51.0062Z" fill="#8CC5F9"/>
<path d="M298.982 35.632C298.115 35.6296 297.271 35.3577 296.567 34.8539C260.126 8.25068 229.12 33.5794 227.819 34.6795C226.982 35.3453 225.919 35.6585 224.855 35.5524C223.791 35.4463 222.81 34.9293 222.121 34.1113C221.433 33.2934 221.09 32.2391 221.167 31.1727C221.244 30.1063 221.734 29.1119 222.532 28.401C222.895 28.0924 259.657 -2.24036 301.41 28.2266C302.104 28.7397 302.618 29.4583 302.88 30.2804C303.142 31.1024 303.139 31.9861 302.87 32.8059C302.601 33.6258 302.081 34.3401 301.383 34.8474C300.685 35.3547 299.845 35.6292 298.982 35.632Z" fill="#8CC5F9"/>
</g>
<defs>
<linearGradient id="paint0_linear" x1="274.563" y1="119.453" x2="190.152" y2="206.917" gradientUnits="userSpaceOnUse">
<stop stop-opacity="0"/>
<stop offset="0.99"/>
</linearGradient>
<linearGradient id="paint1_linear" x1="16252.6" y1="4798.92" x2="16123.3" y2="4150.74" gradientUnits="userSpaceOnUse">
<stop stop-opacity="0"/>
<stop offset="0.99"/>
</linearGradient>
<linearGradient id="paint2_linear" x1="41186.4" y1="5433.88" x2="30232.8" y2="6034.58" gradientUnits="userSpaceOnUse">
<stop stop-opacity="0"/>
<stop offset="0.99"/>
</linearGradient>
<linearGradient id="paint3_linear" x1="473.656" y1="72.5116" x2="489.056" y2="200.994" gradientUnits="userSpaceOnUse">
<stop offset="0.02" stop-color="white" stop-opacity="0"/>
<stop offset="0.32" stop-color="white" stop-opacity="0.39"/>
<stop offset="0.68" stop-color="white" stop-opacity="0.68"/>
<stop offset="1" stop-color="white"/>
</linearGradient>
<linearGradient id="paint4_linear" x1="13829.2" y1="597.286" x2="13902.7" y2="887.07" gradientUnits="userSpaceOnUse">
<stop stop-opacity="0"/>
<stop offset="0.99"/>
</linearGradient>
<linearGradient id="paint5_linear" x1="2841.15" y1="1565.14" x2="2746.52" y2="1518.33" gradientUnits="userSpaceOnUse">
<stop stop-opacity="0"/>
<stop offset="0.99"/>
</linearGradient>
<linearGradient id="paint6_linear" x1="29274.6" y1="3039.98" x2="29348.7" y2="2667.66" gradientUnits="userSpaceOnUse">
<stop stop-opacity="0"/>
<stop offset="0.99"/>
</linearGradient>
<linearGradient id="paint7_linear" x1="62249.5" y1="5882.38" x2="68542.4" y2="6226.86" gradientUnits="userSpaceOnUse">
<stop stop-opacity="0"/>
<stop offset="0.99"/>
</linearGradient>
<linearGradient id="paint8_linear" x1="66302.1" y1="4797.08" x2="66016.6" y2="8348.09" gradientUnits="userSpaceOnUse">
<stop offset="0.02" stop-color="white" stop-opacity="0"/>
<stop offset="0.32" stop-color="white" stop-opacity="0.39"/>
<stop offset="0.68" stop-color="white" stop-opacity="0.68"/>
<stop offset="1" stop-color="white"/>
</linearGradient>
<linearGradient id="paint9_linear" x1="25178.1" y1="529.112" x2="25135.8" y2="695.734" gradientUnits="userSpaceOnUse">
<stop stop-opacity="0"/>
<stop offset="0.99"/>
</linearGradient>
<linearGradient id="paint10_linear" x1="3050.87" y1="1006.61" x2="3105.3" y2="979.715" gradientUnits="userSpaceOnUse">
<stop stop-opacity="0"/>
<stop offset="0.99"/>
</linearGradient>
<linearGradient id="paint11_linear" x1="3737.78" y1="611.052" x2="3674.73" y2="4598.19" gradientUnits="userSpaceOnUse">
<stop stop-opacity="0"/>
<stop offset="0.99"/>
</linearGradient>
<linearGradient id="paint12_linear" x1="4886.1" y1="996.627" x2="4870.32" y2="1102.91" gradientUnits="userSpaceOnUse">
<stop stop-opacity="0"/>
<stop offset="0.99"/>
</linearGradient>
<linearGradient id="paint13_linear" x1="24605.6" y1="5241.09" x2="26264.7" y2="8499.82" gradientUnits="userSpaceOnUse">
<stop stop-opacity="0"/>
<stop offset="0.99"/>
</linearGradient>
<linearGradient id="paint14_linear" x1="17465.6" y1="-5422.5" x2="17498.2" y2="-5336.82" gradientUnits="userSpaceOnUse">
<stop stop-opacity="0"/>
<stop offset="0.99"/>
</linearGradient>
<linearGradient id="paint15_linear" x1="14636.1" y1="29932.9" x2="15014.9" y2="33310.3" gradientUnits="userSpaceOnUse">
<stop stop-opacity="0"/>
<stop offset="0.99"/>
</linearGradient>
<clipPath id="clip0">
<rect width="561" height="289" fill="white"/>
</clipPath>
</defs>
</svg>
